<?xml version="1.0" encoding="UTF-8" standalone="no"?>
<!-- Created with Inkscape (http://www.inkscape.org/) -->

<svg
   xmlns:dc="http://purl.org/dc/elements/1.1/"
   xmlns:cc="http://creativecommons.org/ns#"
   xmlns:rdf="http://www.w3.org/1999/02/22-rdf-syntax-ns#"
   xmlns:svg="http://www.w3.org/2000/svg"
   xmlns="http://www.w3.org/2000/svg"
   xmlns:sodipodi="http://sodipodi.sourceforge.net/DTD/sodipodi-0.dtd"
   xmlns:inkscape="http://www.inkscape.org/namespaces/inkscape"
   width="736.48169"
   height="188.42494"
   viewBox="0 0 736.48164 188.42495"
   id="svg5472"
   version="1.1"
   inkscape:version="0.92.0 r15299"
   sodipodi:docname="logo_parque_la_reja.svg">
  <defs
     id="defs5474" />
  <sodipodi:namedview
     id="base"
     pagecolor="#363636"
     bordercolor="#666666"
     borderopacity="1.0"
     inkscape:pageopacity="0"
     inkscape:pageshadow="2"
     inkscape:zoom="0.35355339"
     inkscape:cx="542.92552"
     inkscape:cy="-41.527483"
     inkscape:document-units="px"
     inkscape:current-layer="layer1"
     showgrid="true"
     inkscape:window-width="1920"
     inkscape:window-height="1022"
     inkscape:window-x="0"
     inkscape:window-y="0"
     inkscape:window-maximized="1"
     units="px"
     showborder="true"
     borderlayer="true"
     inkscape:showpageshadow="false"
     guidetolerance="10000"
     inkscape:snap-page="true"
     inkscape:snap-global="false"
     inkscape:snap-grids="true"
     inkscape:measure-start="0,0"
     inkscape:measure-end="0,0"
     showguides="false"
     fit-margin-top="0"
     fit-margin-left="0"
     fit-margin-right="0"
     fit-margin-bottom="0" />
  <metadata
     id="metadata5477">
    <rdf:RDF>
      <cc:Work
         rdf:about="">
        <dc:format>image/svg+xml</dc:format>
        <dc:type
           rdf:resource="http://purl.org/dc/dcmitype/StillImage" />
        <dc:title></dc:title>
      </cc:Work>
    </rdf:RDF>
  </metadata>
  <g
     inkscape:groupmode="layer"
     id="layer1"
     inkscape:label="layer 1"
     style="display:inline"
     transform="translate(-431.75915,-385.78753)">
    <path
       style="fill:#000000;stroke-width:0.32000002"
       d=""
       id="path4495"
       inkscape:connector-curvature="0" />
    <text
       xml:space="preserve"
       style="font-style:normal;font-weight:normal;font-size:40px;line-height:25px;font-family:sans-serif;letter-spacing:33.11000061px;word-spacing:8.25px;fill:#000000;fill-opacity:1;stroke:none;stroke-width:1px;stroke-linecap:butt;stroke-linejoin:miter;stroke-opacity:1"
       x="1665.9436"
       y="317.94705"
       id="text4542"><tspan
         sodipodi:role="line"
         x="1665.9436"
         y="340.83768"
         id="tspan4550" /></text>
    <g
       id="g5112"
       transform="translate(317.44791,352.8854)">
      <circle
         r="94.212471"
         cy="127.1146"
         cx="208.52371"
         id="circle4993"
         style="color:#000000;clip-rule:nonzero;display:inline;overflow:visible;visibility:visible;opacity:1;isolation:auto;mix-blend-mode:normal;color-interpolation:sRGB;color-interpolation-filters:linearRGB;solid-color:#000000;solid-opacity:1;fill:#403a46;fill-opacity:1;fill-rule:evenodd;stroke:none;stroke-width:7.53699684;stroke-linecap:round;stroke-linejoin:round;stroke-miterlimit:4;stroke-dasharray:none;stroke-dashoffset:0;stroke-opacity:1;paint-order:stroke fill markers;color-rendering:auto;image-rendering:auto;shape-rendering:auto;text-rendering:auto;enable-background:accumulate"
         inkscape:export-filename="/home/carlosmu/Dropbox/web PLR/svg/logo_parque5.png"
         inkscape:export-xdpi="300"
         inkscape:export-ydpi="300" />
      <path
         inkscape:connector-curvature="0"
         id="path4995"
         d="m 175.15161,54.808303 0.0612,9.22884 h 14.85271 v 7.42634 H 152.93391 V 108.59513 H 145.5075 V 93.742463 h -9.29002 c 0,22.278987 0,44.557977 0,66.836967 h 9.29058 v -14.85266 h 7.42641 v 37.13165 h 37.13161 v 7.42632 h -14.85271 l -0.15451,9.13614 c 22.27901,0 44.55802,0 66.83703,0 l 0.15452,-9.13614 h -14.8526 v -7.42632 h 37.13161 v -37.13165 h 7.4263 v 14.85266 h 9.07433 c 0,-22.27899 0,-44.55798 0,-66.836967 h -9.07433 v 14.852667 h -7.4263 V 71.463483 h -37.13161 v -7.42634 h 14.8526 l -0.0617,-9.22884 c -22.27901,0 -44.55803,0 -66.83704,0 z"
         style="fill:#ffffff;fill-opacity:1;fill-rule:evenodd;stroke:none;stroke-width:3.71316481px;stroke-linecap:butt;stroke-linejoin:miter;stroke-opacity:1"
         sodipodi:nodetypes="ccccccccccccccccccccccccccccccccccccc"
         inkscape:export-filename="/home/carlosmu/Dropbox/web PLR/svg/logo_parque5.png"
         inkscape:export-xdpi="300"
         inkscape:export-ydpi="300" />
      <circle
         style="color:#000000;clip-rule:nonzero;display:inline;overflow:visible;visibility:visible;opacity:1;isolation:auto;mix-blend-mode:normal;color-interpolation:sRGB;color-interpolation-filters:linearRGB;solid-color:#000000;solid-opacity:1;fill:none;fill-opacity:1;fill-rule:evenodd;stroke:#62586a;stroke-width:4.5;stroke-linecap:round;stroke-linejoin:miter;stroke-miterlimit:4;stroke-dasharray:none;stroke-dashoffset:0;stroke-opacity:1;paint-order:stroke markers fill;color-rendering:auto;image-rendering:auto;shape-rendering:auto;text-rendering:auto;enable-background:accumulate"
         id="circle4997"
         cx="208.52371"
         cy="127.1146"
         r="46.013729"
         inkscape:export-filename="/home/carlosmu/Dropbox/web PLR/svg/logo_parque5.png"
         inkscape:export-xdpi="300"
         inkscape:export-ydpi="300" />
      <circle
         style="color:#000000;clip-rule:nonzero;display:inline;overflow:visible;visibility:visible;opacity:1;isolation:auto;mix-blend-mode:normal;color-interpolation:sRGB;color-interpolation-filters:linearRGB;solid-color:#000000;solid-opacity:1;fill:#403a46;fill-opacity:1;fill-rule:evenodd;stroke:none;stroke-width:0.15523377;stroke-linecap:round;stroke-linejoin:round;stroke-miterlimit:4;stroke-dasharray:none;stroke-dashoffset:0;stroke-opacity:1;paint-order:stroke fill markers;color-rendering:auto;image-rendering:auto;shape-rendering:auto;text-rendering:auto;enable-background:accumulate"
         id="circle4999"
         cx="208.52371"
         cy="127.1146"
         r="1.9404221"
         inkscape:export-filename="/home/carlosmu/Dropbox/web PLR/svg/logo_parque5.png"
         inkscape:export-xdpi="300"
         inkscape:export-ydpi="300" />
      <g
         id="text5005"
         style="font-style:normal;font-weight:normal;font-size:70.88291168px;line-height:44.30181885px;font-family:sans-serif;letter-spacing:0px;word-spacing:14.61960125px;fill:#403a46;fill-opacity:1;stroke:none;stroke-width:1.77207303px;stroke-linecap:butt;stroke-linejoin:miter;stroke-opacity:1"
         aria-label="Parques de Estudio y Reflexión ">
        <path
           id="path5011"
           style="font-style:normal;font-variant:normal;font-weight:bold;font-stretch:normal;font-size:40px;line-height:0px;font-family:Actor;-inkscape-font-specification:'Actor Bold';word-spacing:0px;fill:#403a46;fill-opacity:1;stroke-width:1.77207303px"
           d="m 335.50544,83.873358 h 6.28 q 5.2,0 7.68,1.84 2.52,1.84 2.52,6.2 0,2.4 -0.92,4 -0.92,1.6 -2.32,2.6 -1.36,0.96 -2.96,1.4 -1.6,0.400002 -2.96,0.400002 h -3.96 v 10.84 h -3.36 z m 3.36,13.44 h 3.68 q 1.36,0 2.44,-0.24 1.12,-0.28 1.92,-0.88 0.8,-0.64 1.24,-1.68 0.44,-1.08 0.44,-2.68 0,-1.6 -0.48,-2.56 -0.44,-1 -1.36,-1.52 -0.88,-0.52 -2.24,-0.68 -1.36,-0.2 -3.16,-0.2 h -2.48 z"
           inkscape:connector-curvature="0" />
        <path
           id="path5013"
           style="font-style:normal;font-variant:normal;font-weight:bold;font-stretch:normal;font-size:40px;line-height:0px;font-family:Actor;-inkscape-font-specification:'Actor Bold';word-spacing:0px;fill:#403a46;fill-opacity:1;stroke-width:1.77207303px"
           d="m 367.31544,101.91336 q -0.8,0.04 -1.52,0.08 -0.72,0.04 -1.44,0.12 -0.68,0.04 -1.24,0.12 -2.88,0.36 -4.08,1.28 -1.2,0.88 -1.2,2.56 0,1.4 0.84,2.12 0.88,0.68 2.28,0.68 1.92,0 3.4,-0.64 1.52,-0.68 2.96,-1.76 z m -0.04,7.36 q -1.88,1.08 -3.52,1.76 -1.6,0.64 -3.48,0.64 -2.68,0 -4.28,-1.28 -1.56,-1.32 -1.56,-4.32 0,-1.56 0.8,-2.72 0.8,-1.16 2.08,-1.92 1.32,-0.8 2.96,-1.24 1.64,-0.440002 3.36,-0.560002 0.72,-0.08 1.88,-0.12 1.16,-0.08 1.8,-0.12 0,-1.4 -0.08,-2.48 -0.08,-1.12 -0.48,-1.88 -0.4,-0.8 -1.2,-1.2 -0.76,-0.4 -2.2,-0.4 -1.16,0 -2.24,0.16 -1.08,0.12 -1.92,0.28 -1,0.2 -1.84,0.44 l -0.64,-2.76 q 1,-0.24 2.16,-0.44 1,-0.2 2.32,-0.32 1.32,-0.16 2.84,-0.16 2.04,0 3.28,0.6 1.28,0.6 1.96,1.64 0.72,1 0.96,2.32 0.28,1.28 0.28,2.72 v 9.600002 q 0,0.56 0,1.2 0.04,0.6 0.08,1.2 0.08,0.6 0.16,1.24 l -3.08,0.32 z"
           inkscape:connector-curvature="0" />
        <path
           id="path5015"
           style="font-style:normal;font-variant:normal;font-weight:bold;font-stretch:normal;font-size:40px;line-height:0px;font-family:Actor;-inkscape-font-specification:'Actor Bold';word-spacing:0px;fill:#403a46;fill-opacity:1;stroke-width:1.77207303px"
           d="m 376.23357,94.273358 q 0,-0.92 -0.2,-2.88 l 2.96,-0.4 0.32,2.92 h 0.04 q 0.72,-0.92 1.4,-1.6 0.68,-0.68 1.4,-1.16 0.76,-0.52 1.44,-0.52 0.92,-0.04 2.56,0.2 l -0.72,3.08 q -1.32,-0.24 -1.84,-0.2 -0.68,0 -1.44,0.64 -0.76,0.64 -1.32,1.36 -0.72,0.88 -1.4,2 v 13.440002 h -3.2 z"
           inkscape:connector-curvature="0" />
        <path
           id="path5017"
           style="font-style:normal;font-variant:normal;font-weight:bold;font-stretch:normal;font-size:40px;line-height:0px;font-family:Actor;-inkscape-font-specification:'Actor Bold';word-spacing:0px;fill:#403a46;fill-opacity:1;stroke-width:1.77207303px"
           d="m 401.64419,109.55336 q -1.16,0.84 -2.76,1.48 -1.56,0.64 -2.88,0.64 -1.64,0 -3.12,-0.56 -1.44,-0.56 -2.56,-1.8 -1.08,-1.24 -1.72,-3.2 -0.64,-2 -0.64,-4.88 0,-2.720002 0.88,-4.720002 0.92,-2 2.32,-3.28 1.44,-1.32 3.16,-1.96 1.76,-0.64 3.4,-0.64 1.52,0 2.48,0.2 0.96,0.16 1.68,0.36 0.72,0.2 1.36,0.4 0.64,0.16 1.56,0.16 v 28.160002 l -3.16,0.4 z m -5.28,-0.68 q 0.88,0 1.8,-0.32 0.92,-0.32 1.76,-0.76 0.84,-0.44 1.72,-1.04 V 93.993358 q -0.36,-0.12 -0.88,-0.28 -0.44,-0.08 -1.2,-0.16 -0.76,-0.12 -1.84,-0.12 -1.68,0 -2.88,0.6 -1.2,0.6 -2,1.68 -0.76,1.04 -1.12,2.44 -0.36,1.36 -0.36,2.920002 0,1.4 0.28,2.8 0.32,1.4 0.96,2.52 0.64,1.12 1.56,1.8 0.92,0.68 2.2,0.68 z"
           inkscape:connector-curvature="0" />
        <path
           id="path5019"
           style="font-style:normal;font-variant:normal;font-weight:bold;font-stretch:normal;font-size:40px;line-height:0px;font-family:Actor;-inkscape-font-specification:'Actor Bold';word-spacing:0px;fill:#403a46;fill-opacity:1;stroke-width:1.77207303px"
           d="m 422.60857,108.95336 h -0.08 q -0.36,0.28 -1.04,0.76 -0.68,0.44 -1.56,0.88 -0.88,0.44 -1.96,0.76 -1.04,0.32 -2.12,0.32 -1.48,0 -2.52,-0.4 -1.04,-0.36 -1.68,-1.24 -0.64,-0.88 -0.92,-2.32 -0.28,-1.44 -0.28,-3.6 V 91.033358 h 3.2 v 12.600002 q 0,1.2 0.04,2.16 0.04,0.96 0.28,1.64 0.24,0.68 0.76,1.08 0.56,0.36 1.56,0.36 1.04,0 2.16,-0.44 1.12,-0.44 2.04,-1 1.08,-0.64 2.12,-1.44 V 91.033358 h 3.2 v 17.520002 q 0.04,1.44 0.2,2.6 l -3.16,0.32 z"
           inkscape:connector-curvature="0" />
        <path
           id="path5021"
           style="font-style:normal;font-variant:normal;font-weight:bold;font-stretch:normal;font-size:40px;line-height:0px;font-family:Actor;-inkscape-font-specification:'Actor Bold';word-spacing:0px;fill:#403a46;fill-opacity:1;stroke-width:1.77207303px"
           d="m 446.46419,110.67336 q -0.92,0.28 -1.92,0.48 -0.96,0.2 -2.16,0.36 -1.16,0.16 -2.44,0.16 -2,0 -3.72,-0.56 -1.72,-0.56 -3,-1.8 -1.28,-1.24 -2.04,-3.2 -0.72,-2 -0.72,-4.88 0,-2.600002 0.72,-4.560002 0.72,-2 1.96,-3.32 1.28,-1.36 2.96,-2.04 1.72,-0.68 3.72,-0.68 1.96,0 3.4,0.76 1.44,0.76 2.36,2.08 0.96,1.28 1.4,3.04 0.48,1.72 0.48,3.640002 l -0.6,1.76 h -12.92 q 0,1.24 0.32,2.48 0.32,1.24 1.08,2.24 0.8,1 2.04,1.64 1.28,0.6 3.16,0.6 1.2,0 2.2,-0.12 1,-0.16 1.72,-0.32 0.76,-0.2 1.4,-0.44 z m -2.32,-11.320002 q 0,-0.28 -0.12,-1.24 -0.12,-0.96 -0.56,-2 -0.44,-1.04 -1.36,-1.84 -0.92,-0.84 -2.44,-0.84 -1.68,0 -2.76,0.72 -1.08,0.68 -1.72,1.64 -0.64,0.96 -0.88,1.96 -0.24,1 -0.24,1.6 z"
           inkscape:connector-curvature="0" />
        <path
           id="path5023"
           style="font-style:normal;font-variant:normal;font-weight:bold;font-stretch:normal;font-size:40px;line-height:0px;font-family:Actor;-inkscape-font-specification:'Actor Bold';word-spacing:0px;fill:#403a46;fill-opacity:1;stroke-width:1.77207303px"
           d="m 462.69857,94.313358 q -1.68,-0.52 -3,-0.68 -1.28,-0.2 -2.36,-0.2 -1.4,0 -2.36,0.68 -0.92,0.68 -0.92,1.76 0.04,0.96 0.84,1.64 0.8,0.68 1.84,1.24 1.08,0.52 2.36,1.16 1.32,0.640002 2.44,1.440002 1.16,0.8 1.88,1.92 0.72,1.12 0.76,2.68 -0.04,1.68 -0.76,2.8 -0.68,1.08 -1.8,1.76 -1.08,0.64 -2.36,0.88 -1.28,0.28 -2.4,0.28 -1.44,0 -3,-0.16 -1.52,-0.16 -3.28,-0.68 l 0.6,-2.88 q 1.8,0.48 3.28,0.72 1.48,0.2 2.44,0.2 0.72,0 1.4,-0.16 0.72,-0.16 1.28,-0.44 0.56,-0.32 0.88,-0.8 0.36,-0.48 0.36,-1.08 -0.04,-1.12 -0.76,-1.88 -0.72,-0.8 -1.88,-1.4 -1.12,-0.64 -2.44,-1.24 -1.28,-0.64 -2.44,-1.44 -1.12,-0.840002 -1.88,-1.960002 -0.76,-1.16 -0.76,-2.84 0,-1.2 0.6,-2.12 0.64,-0.96 1.6,-1.56 1,-0.64 2.16,-0.96 1.2,-0.36 2.32,-0.36 1.16,0 2.6,0.2 1.44,0.16 3.32,0.64 z"
           inkscape:connector-curvature="0" />
        <path
           id="path5025"
           style="font-style:normal;font-variant:normal;font-weight:bold;font-stretch:normal;font-size:40px;line-height:0px;font-family:Actor;-inkscape-font-specification:'Actor Bold';word-spacing:0px;fill:#403a46;fill-opacity:1;stroke-width:1.77207303px"
           d="m 490.23794,94.033358 q -1.44,-0.4 -2.24,-0.48 -0.8,-0.12 -1.64,-0.12 -1.68,0 -2.88,0.6 -1.2,0.6 -2,1.68 -0.76,1.04 -1.12,2.44 -0.36,1.36 -0.36,2.920002 0,1.4 0.28,2.8 0.32,1.4 0.96,2.52 0.64,1.12 1.56,1.8 0.92,0.68 2.2,0.68 0.88,0 1.8,-0.32 0.96,-0.32 1.76,-0.72 0.8,-0.44 1.68,-1.08 z m 0.04,15.520002 q -0.92,0.64 -1.8,1.08 -0.84,0.4 -1.88,0.72 -1,0.32 -1.96,0.32 -3.76,0 -5.92,-2.64 -2.12,-2.68 -2.12,-7.8 0,-3.040002 0.96,-5.080002 1,-2.04 2.48,-3.24 1.48,-1.24 3.16,-1.76 1.72,-0.52 3.16,-0.52 0.72,0 1.52,0.12 0.8,0.08 2.36,0.48 v -10.04 l 3.2,-0.36 v 26.680002 q 0,0.56 0,1.2 0.04,0.6 0.08,1.2 0.08,0.6 0.16,1.24 l -3.08,0.32 z"
           inkscape:connector-curvature="0" />
        <path
           id="path5027"
           style="font-style:normal;font-variant:normal;font-weight:bold;font-stretch:normal;font-size:40px;line-height:0px;font-family:Actor;-inkscape-font-specification:'Actor Bold';word-spacing:0px;fill:#403a46;fill-opacity:1;stroke-width:1.77207303px"
           d="m 514.12044,110.67336 q -0.92,0.28 -1.92,0.48 -0.96,0.2 -2.16,0.36 -1.16,0.16 -2.44,0.16 -2,0 -3.72,-0.56 -1.72,-0.56 -3,-1.8 -1.28,-1.24 -2.04,-3.2 -0.72,-2 -0.72,-4.88 0,-2.600002 0.72,-4.560002 0.72,-2 1.96,-3.32 1.28,-1.36 2.96,-2.04 1.72,-0.68 3.72,-0.68 1.96,0 3.4,0.76 1.44,0.76 2.36,2.08 0.96,1.28 1.4,3.04 0.48,1.72 0.48,3.640002 l -0.6,1.76 h -12.92 q 0,1.24 0.32,2.48 0.32,1.24 1.08,2.24 0.8,1 2.04,1.64 1.28,0.6 3.16,0.6 1.2,0 2.2,-0.12 1,-0.16 1.72,-0.32 0.76,-0.2 1.4,-0.44 z m -2.32,-11.320002 q 0,-0.28 -0.12,-1.24 -0.12,-0.96 -0.56,-2 -0.44,-1.04 -1.36,-1.84 -0.92,-0.84 -2.44,-0.84 -1.68,0 -2.76,0.72 -1.08,0.68 -1.72,1.64 -0.64,0.96 -0.88,1.96 -0.24,1 -0.24,1.6 z"
           inkscape:connector-curvature="0" />
        <path
           id="path5029"
           style="font-style:normal;font-variant:normal;font-weight:bold;font-stretch:normal;font-size:40px;line-height:0px;font-family:Actor;-inkscape-font-specification:'Actor Bold';word-spacing:0px;fill:#403a46;fill-opacity:1;stroke-width:1.77207303px"
           d="m 529.25544,83.873358 h 16.72 v 3.08 h -13.36 v 8.72 h 12.4 v 3 h -12.4 v 9.400002 h 13.76 v 3.08 h -17.12 z"
           inkscape:connector-curvature="0" />
        <path
           id="path5031"
           style="font-style:normal;font-variant:normal;font-weight:bold;font-stretch:normal;font-size:40px;line-height:0px;font-family:Actor;-inkscape-font-specification:'Actor Bold';word-spacing:0px;fill:#403a46;fill-opacity:1;stroke-width:1.77207303px"
           d="m 562.07357,94.313358 q -1.68,-0.52 -3,-0.68 -1.28,-0.2 -2.36,-0.2 -1.4,0 -2.36,0.68 -0.92,0.68 -0.92,1.76 0.04,0.96 0.84,1.64 0.8,0.68 1.84,1.24 1.08,0.52 2.36,1.16 1.32,0.640002 2.44,1.440002 1.16,0.8 1.88,1.92 0.72,1.12 0.76,2.68 -0.04,1.68 -0.76,2.8 -0.68,1.08 -1.8,1.76 -1.08,0.64 -2.36,0.88 -1.28,0.28 -2.4,0.28 -1.44,0 -3,-0.16 -1.52,-0.16 -3.28,-0.68 l 0.6,-2.88 q 1.8,0.48 3.28,0.72 1.48,0.2 2.44,0.2 0.72,0 1.4,-0.16 0.72,-0.16 1.28,-0.44 0.56,-0.32 0.88,-0.8 0.36,-0.48 0.36,-1.08 -0.04,-1.12 -0.76,-1.88 -0.72,-0.8 -1.88,-1.4 -1.12,-0.64 -2.44,-1.24 -1.28,-0.64 -2.44,-1.44 -1.12,-0.840002 -1.88,-1.960002 -0.76,-1.16 -0.76,-2.84 0,-1.2 0.6,-2.12 0.64,-0.96 1.6,-1.56 1,-0.64 2.16,-0.96 1.2,-0.36 2.32,-0.36 1.16,0 2.6,0.2 1.44,0.16 3.32,0.64 z"
           inkscape:connector-curvature="0" />
        <path
           id="path5033"
           style="font-style:normal;font-variant:normal;font-weight:bold;font-stretch:normal;font-size:40px;line-height:0px;font-family:Actor;-inkscape-font-specification:'Actor Bold';word-spacing:0px;fill:#403a46;fill-opacity:1;stroke-width:1.77207303px"
           d="m 572.59232,85.033358 v 6 h 5.8 v 2.6 h -5.8 v 10.680002 q 0,1.32 0.04,2.2 0.08,0.88 0.28,1.4 0.2,0.52 0.56,0.76 0.36,0.2 0.92,0.2 1.52,-0.04 3.52,-1.12 l 0.96,2.44 q -1.32,0.88 -2.48,1.16 -1.12,0.32 -2.24,0.32 -2.64,0 -3.72,-1.48 -1.04,-1.52 -1.04,-5 V 93.633358 h -3.68 v -2.6 h 3.68 v -5.6 z"
           inkscape:connector-curvature="0" />
        <path
           id="path5035"
           style="font-style:normal;font-variant:normal;font-weight:bold;font-stretch:normal;font-size:40px;line-height:0px;font-family:Actor;-inkscape-font-specification:'Actor Bold';word-spacing:0px;fill:#403a46;fill-opacity:1;stroke-width:1.77207303px"
           d="m 594.48357,108.95336 h -0.08 q -0.36,0.28 -1.04,0.76 -0.68,0.44 -1.56,0.88 -0.88,0.44 -1.96,0.76 -1.04,0.32 -2.12,0.32 -1.48,0 -2.52,-0.4 -1.04,-0.36 -1.68,-1.24 -0.64,-0.88 -0.92,-2.32 -0.28,-1.44 -0.28,-3.6 V 91.033358 h 3.2 v 12.600002 q 0,1.2 0.04,2.16 0.04,0.96 0.28,1.64 0.24,0.68 0.76,1.08 0.56,0.36 1.56,0.36 1.04,0 2.16,-0.44 1.12,-0.44 2.04,-1 1.08,-0.64 2.12,-1.44 V 91.033358 h 3.2 v 17.520002 q 0.04,1.44 0.2,2.6 l -3.16,0.32 z"
           inkscape:connector-curvature="0" />
        <path
           id="path5037"
           style="font-style:normal;font-variant:normal;font-weight:bold;font-stretch:normal;font-size:40px;line-height:0px;font-family:Actor;-inkscape-font-specification:'Actor Bold';word-spacing:0px;fill:#403a46;fill-opacity:1;stroke-width:1.77207303px"
           d="m 616.01919,94.033358 q -1.44,-0.4 -2.24,-0.48 -0.8,-0.12 -1.64,-0.12 -1.68,0 -2.88,0.6 -1.2,0.6 -2,1.68 -0.76,1.04 -1.12,2.44 -0.36,1.36 -0.36,2.920002 0,1.4 0.28,2.8 0.32,1.4 0.96,2.52 0.64,1.12 1.56,1.8 0.92,0.68 2.2,0.68 0.88,0 1.8,-0.32 0.96,-0.32 1.76,-0.72 0.8,-0.44 1.68,-1.08 z m 0.04,15.520002 q -0.92,0.64 -1.8,1.08 -0.84,0.4 -1.88,0.72 -1,0.32 -1.96,0.32 -3.76,0 -5.92,-2.64 -2.12,-2.68 -2.12,-7.8 0,-3.040002 0.96,-5.080002 1,-2.04 2.48,-3.24 1.48,-1.24 3.16,-1.76 1.72,-0.52 3.16,-0.52 0.72,0 1.52,0.12 0.8,0.08 2.36,0.48 v -10.04 l 3.2,-0.36 v 26.680002 q 0,0.56 0,1.2 0.04,0.6 0.08,1.2 0.08,0.6 0.16,1.24 l -3.08,0.32 z"
           inkscape:connector-curvature="0" />
        <path
           id="path5039"
           style="font-style:normal;font-variant:normal;font-weight:bold;font-stretch:normal;font-size:40px;line-height:0px;font-family:Actor;-inkscape-font-specification:'Actor Bold';word-spacing:0px;fill:#403a46;fill-opacity:1;stroke-width:1.77207303px"
           d="m 625.02169,90.993358 3.2,-0.36 v 20.520002 h -3.2 z m -0.52,-5.72 q 0,-0.92 0.6,-1.52 0.64,-0.64 1.56,-0.64 0.96,0 1.6,0.64 0.68,0.6 0.68,1.52 0,0.92 -0.68,1.56 -0.64,0.6 -1.6,0.6 -0.92,0 -1.56,-0.6 -0.6,-0.64 -0.6,-1.56 z"
           inkscape:connector-curvature="0" />
        <path
           id="path5041"
           style="font-style:normal;font-variant:normal;font-weight:bold;font-stretch:normal;font-size:40px;line-height:0px;font-family:Actor;-inkscape-font-specification:'Actor Bold';word-spacing:0px;fill:#403a46;fill-opacity:1;stroke-width:1.77207303px"
           d="m 636.28607,101.19336 q 0,3.88 1.72,5.8 1.76,1.88 4.72,1.88 2.92,0 4.56,-1.88 1.64,-1.88 1.64,-5.64 0,-4.000002 -1.76,-5.960002 -1.72,-1.96 -4.72,-1.96 -3,0 -4.6,1.96 -1.56,1.92 -1.56,5.800002 z m -3.4,-0.04 q 0,-3.040002 0.96,-5.040002 0.96,-2.04 2.44,-3.24 1.48,-1.24 3.16,-1.72 1.72,-0.52 3.24,-0.52 1.44,0 3.12,0.48 1.72,0.44 3.16,1.64 1.44,1.16 2.4,3.16 0.96,1.96 0.96,5.000002 0,3.16 -1,5.24 -0.96,2.08 -2.44,3.32 -1.48,1.2 -3.2,1.68 -1.72,0.52 -3.2,0.52 -1.52,0 -3.2,-0.48 -1.68,-0.48 -3.12,-1.64 -1.4,-1.2 -2.36,-3.24 -0.92,-2.04 -0.92,-5.16 z"
           inkscape:connector-curvature="0" />
        <path
           id="path5043"
           style="font-style:normal;font-variant:normal;font-weight:bold;font-stretch:normal;font-size:40px;line-height:0px;font-family:Actor;-inkscape-font-specification:'Actor Bold';word-spacing:0px;fill:#403a46;fill-opacity:1;stroke-width:1.77207303px"
           d="m 663.51544,91.033358 h 3.4 l 3.76,9.080002 q 0.56,1.32 1,2.64 0.48,1.32 0.84,2.36 0.44,1.24 0.76,2.4 h 0.04 q 0.36,-1.16 0.8,-2.4 0.36,-1.04 0.84,-2.36 0.48,-1.32 1,-2.64 l 3.48,-9.080002 h 3.36 l -9.52,24.000002 q -0.56,1.48 -1.48,2.56 -0.88,1.08 -1.72,1.8 -1,0.84 -2.08,1.44 l -1.56,-2.76 q 0.84,-0.4 1.56,-1 0.64,-0.52 1.28,-1.32 0.64,-0.76 1.04,-1.84 l 1.24,-3.28 z"
           inkscape:connector-curvature="0" />
        <path
           id="path5045"
           style="font-style:normal;font-variant:normal;font-weight:bold;font-stretch:normal;font-size:40px;line-height:0px;font-family:Actor;-inkscape-font-specification:'Actor Bold';word-spacing:0px;fill:#403a46;fill-opacity:1;stroke-width:1.77207303px"
           d="m 695.73982,83.873358 h 6.72 q 2.2,0 4,0.4 1.84,0.36 3.12,1.28 1.28,0.88 1.96,2.36 0.68,1.48 0.68,3.72 -0.04,2.48 -0.84,4.04 -0.8,1.52 -1.96,2.48 -1.16,0.92 -2.68,1.36 v 0.08 q 0.16,0.16 0.48,0.600002 0.36,0.4 0.6,0.72 l 7.72,10.24 h -3.96 l -7.92,-10.84 h -4.56 v 10.84 h -3.36 z m 13.08,8.32 q 0,-1.68 -0.44,-2.72 -0.4,-1.08 -1.24,-1.64 -0.8,-0.56 -2,-0.76 -1.2,-0.2 -2.72,-0.2 h -3.32 v 10.44 h 3.96 q 1.56,0 2.64,-0.4 1.08,-0.4 1.76,-1.08 0.68,-0.72 1,-1.64 0.32,-0.92 0.36,-2 z"
           inkscape:connector-curvature="0" />
        <path
           id="path5047"
           style="font-style:normal;font-variant:normal;font-weight:bold;font-stretch:normal;font-size:40px;line-height:0px;font-family:Actor;-inkscape-font-specification:'Actor Bold';word-spacing:0px;fill:#403a46;fill-opacity:1;stroke-width:1.77207303px"
           d="m 732.71419,110.67336 q -0.92,0.28 -1.92,0.48 -0.96,0.2 -2.16,0.36 -1.16,0.16 -2.44,0.16 -2,0 -3.72,-0.56 -1.72,-0.56 -3,-1.8 -1.28,-1.24 -2.04,-3.2 -0.72,-2 -0.72,-4.88 0,-2.600002 0.72,-4.560002 0.72,-2 1.96,-3.32 1.28,-1.36 2.96,-2.04 1.72,-0.68 3.72,-0.68 1.96,0 3.4,0.76 1.44,0.76 2.36,2.08 0.96,1.28 1.4,3.04 0.48,1.72 0.48,3.640002 l -0.6,1.76 h -12.92 q 0,1.24 0.32,2.48 0.32,1.24 1.08,2.24 0.8,1 2.04,1.64 1.28,0.6 3.16,0.6 1.2,0 2.2,-0.12 1,-0.16 1.72,-0.32 0.76,-0.2 1.4,-0.44 z m -2.32,-11.320002 q 0,-0.28 -0.12,-1.24 -0.12,-0.96 -0.56,-2 -0.44,-1.04 -1.36,-1.84 -0.92,-0.84 -2.44,-0.84 -1.68,0 -2.76,0.72 -1.08,0.68 -1.72,1.64 -0.64,0.96 -0.88,1.96 -0.24,1 -0.24,1.6 z"
           inkscape:connector-curvature="0" />
        <path
           id="path5049"
           style="font-style:normal;font-variant:normal;font-weight:bold;font-stretch:normal;font-size:40px;line-height:0px;font-family:Actor;-inkscape-font-specification:'Actor Bold';word-spacing:0px;fill:#403a46;fill-opacity:1;stroke-width:1.77207303px"
           d="m 739.78857,93.633358 h -3.72 v -2.6 h 3.68 q 0,-5.56 2.52,-8.08 2.52,-2.52 6.88,-2.52 3.36,0 7.16,1.2 v 29.520002 h -3.2 V 83.833358 q -1.84,-0.6 -3.92,-0.6 -2.04,0 -3.28,0.64 -1.24,0.64 -1.88,1.72 -0.64,1.08 -0.88,2.48 -0.2,1.4 -0.2,2.96 h 5.04 v 2.6 h -5 v 17.520002 h -3.2 z"
           inkscape:connector-curvature="0" />
        <path
           id="path5051"
           style="font-style:normal;font-variant:normal;font-weight:bold;font-stretch:normal;font-size:40px;line-height:0px;font-family:Actor;-inkscape-font-specification:'Actor Bold';word-spacing:0px;fill:#403a46;fill-opacity:1;stroke-width:1.77207303px"
           d="m 776.93294,110.67336 q -0.92,0.28 -1.92,0.48 -0.96,0.2 -2.16,0.36 -1.16,0.16 -2.44,0.16 -2,0 -3.72,-0.56 -1.72,-0.56 -3,-1.8 -1.28,-1.24 -2.04,-3.2 -0.72,-2 -0.72,-4.88 0,-2.600002 0.72,-4.560002 0.72,-2 1.96,-3.32 1.28,-1.36 2.96,-2.04 1.72,-0.68 3.72,-0.68 1.96,0 3.4,0.76 1.44,0.76 2.36,2.08 0.96,1.28 1.4,3.04 0.48,1.72 0.48,3.640002 l -0.6,1.76 h -12.92 q 0,1.24 0.32,2.48 0.32,1.24 1.08,2.24 0.8,1 2.04,1.64 1.28,0.6 3.16,0.6 1.2,0 2.2,-0.12 1,-0.16 1.72,-0.32 0.76,-0.2 1.4,-0.44 z m -2.32,-11.320002 q 0,-0.28 -0.12,-1.24 -0.12,-0.96 -0.56,-2 -0.44,-1.04 -1.36,-1.84 -0.92,-0.84 -2.44,-0.84 -1.68,0 -2.76,0.72 -1.08,0.68 -1.72,1.64 -0.64,0.96 -0.88,1.96 -0.24,1 -0.24,1.6 z"
           inkscape:connector-curvature="0" />
        <path
           id="path5053"
           style="font-style:normal;font-variant:normal;font-weight:bold;font-stretch:normal;font-size:40px;line-height:0px;font-family:Actor;-inkscape-font-specification:'Actor Bold';word-spacing:0px;fill:#403a46;fill-opacity:1;stroke-width:1.77207303px"
           d="m 787.33294,100.59336 -7.44,-9.560002 h 3.76 l 5.88,7.44 5.56,-7.44 h 3.6 l -7,9.440002 7.68,10.68 h -3.76 l -6.12,-8.52 -6.2,8.52 h -3.6 z"
           inkscape:connector-curvature="0" />
        <path
           id="path5055"
           style="font-style:normal;font-variant:normal;font-weight:bold;font-stretch:normal;font-size:40px;line-height:0px;font-family:Actor;-inkscape-font-specification:'Actor Bold';word-spacing:0px;fill:#403a46;fill-opacity:1;stroke-width:1.77207303px"
           d="m 802.59982,90.993358 3.2,-0.36 v 20.520002 h -3.2 z m -0.52,-5.72 q 0,-0.92 0.6,-1.52 0.64,-0.64 1.56,-0.64 0.96,0 1.6,0.64 0.68,0.6 0.68,1.52 0,0.92 -0.68,1.56 -0.64,0.6 -1.6,0.6 -0.92,0 -1.56,-0.6 -0.6,-0.64 -0.6,-1.56 z"
           inkscape:connector-curvature="0" />
        <path
           id="path5057"
           style="font-style:normal;font-variant:normal;font-weight:bold;font-stretch:normal;font-size:40px;line-height:0px;font-family:Actor;-inkscape-font-specification:'Actor Bold';word-spacing:0px;fill:#403a46;fill-opacity:1;stroke-width:1.77207303px"
           d="m 813.86419,101.19336 q 0,3.88 1.72,5.8 1.76,1.88 4.72,1.88 2.92,0 4.56,-1.88 1.64,-1.88 1.64,-5.64 0,-4.000002 -1.76,-5.960002 -1.72,-1.96 -4.72,-1.96 -3,0 -4.6,1.96 -1.56,1.92 -1.56,5.800002 z m -3.4,-0.04 q 0,-3.040002 0.96,-5.040002 0.96,-2.04 2.44,-3.24 1.48,-1.24 3.16,-1.72 1.72,-0.52 3.24,-0.52 1.44,0 3.12,0.48 1.72,0.44 3.16,1.64 1.44,1.16 2.4,3.16 0.96,1.96 0.96,5.000002 0,3.16 -1,5.24 -0.96,2.08 -2.44,3.32 -1.48,1.2 -3.2,1.68 -1.72,0.52 -3.2,0.52 -1.52,0 -3.2,-0.48 -1.68,-0.48 -3.12,-1.64 -1.4,-1.2 -2.36,-3.24 -0.92,-2.04 -0.92,-5.16 z m 12.36,-20.840002 2.08,2.44 -7.6,4.36 -1.36,-1.8 z"
           inkscape:connector-curvature="0" />
        <path
           id="path5059"
           style="font-style:normal;font-variant:normal;font-weight:bold;font-stretch:normal;font-size:40px;line-height:0px;font-family:Actor;-inkscape-font-specification:'Actor Bold';word-spacing:0px;fill:#403a46;fill-opacity:1;stroke-width:1.77207303px"
           d="m 834.59294,95.033358 q 0.04,-0.84 -0.2,-3.64 l 2.96,-0.4 0.44,2.56 q 1.2,-0.8 2.36,-1.4 1.2,-0.6 2.44,-1.04 1.24,-0.48 2.4,-0.48 1.64,0 2.72,0.4 1.12,0.36 1.8,1.24 0.68,0.88 0.96,2.32 0.32,1.44 0.32,3.6 v 12.960002 h -3.2 V 98.553358 q 0,-1.2 -0.04,-2.12 -0.04,-0.96 -0.36,-1.6 -0.28,-0.68 -0.92,-1.04 -0.6,-0.36 -1.72,-0.36 -1.04,0 -2.2,0.48 -1.16,0.44 -2.28,1.04 -1.12,0.6 -2.28,1.4 v 14.800002 h -3.2 z"
           inkscape:connector-curvature="0" />
      </g>
      <g
         id="text5009"
         style="font-style:normal;font-weight:normal;font-size:70.88291168px;line-height:44.30181885px;font-family:sans-serif;letter-spacing:0px;word-spacing:14.61960125px;fill:#403a46;fill-opacity:1;stroke:none;stroke-width:1.77207303px;stroke-linecap:butt;stroke-linejoin:miter;stroke-opacity:1"
         aria-label="La Reja">
        <path
           id="path5062"
           style="font-style:normal;font-variant:normal;font-weight:normal;font-stretch:normal;font-size:53.33333206px;line-height:58.24399948px;font-family:Actor;-inkscape-font-specification:Actor;word-spacing:0px;fill:#403a46;fill-opacity:1;stroke-width:1.77207303px"
           d="m 334.40509,128.01764 h 4.48 v 32.10667 h 16.53334 v 4.26667 h -21.01334 z"
           inkscape:connector-curvature="0" />
        <path
           id="path5064"
           style="font-style:normal;font-variant:normal;font-weight:normal;font-stretch:normal;font-size:53.33333206px;line-height:58.24399948px;font-family:Actor;-inkscape-font-specification:Actor;word-spacing:0px;fill:#403a46;fill-opacity:1;stroke-width:1.77207303px"
           d="m 375.04759,152.07098 q -1.06666,0.0533 -2.02666,0.10666 -0.96,0.0533 -1.92,0.16 -0.90667,0.0533 -1.65334,0.16 -3.84,0.48 -5.44,1.70667 -1.6,1.17333 -1.6,3.41333 0,1.86667 1.12,2.82667 1.17334,0.90667 3.04,0.90667 2.56,0 4.53334,-0.85334 2.02666,-0.90666 3.94666,-2.34666 z m -0.0533,9.81333 q -2.50667,1.44 -4.69333,2.34667 -2.13334,0.85333 -4.64,0.85333 -3.57334,0 -5.70667,-1.70667 -2.08,-1.76 -2.08,-5.76 0,-2.08 1.06667,-3.62666 1.06666,-1.54667 2.77333,-2.56 1.76,-1.06667 3.94667,-1.65334 2.18666,-0.58666 4.48,-0.74666 0.96,-0.10667 2.50666,-0.16 1.54667,-0.10667 2.4,-0.16 0,-1.86667 -0.10666,-3.30667 -0.10667,-1.49333 -0.64,-2.50667 -0.53334,-1.06666 -1.6,-1.6 -1.01334,-0.53333 -2.93334,-0.53333 -1.54666,0 -2.98666,0.21333 -1.44,0.16 -2.56,0.37334 -1.33334,0.26666 -2.45334,0.58666 l -0.85333,-3.68 q 1.33333,-0.32 2.88,-0.58666 1.33333,-0.26667 3.09333,-0.42667 1.76,-0.21333 3.78667,-0.21333 2.72,0 4.37333,0.8 1.70667,0.8 2.61334,2.18666 0.96,1.33334 1.28,3.09334 0.37333,1.70666 0.37333,3.62666 v 12.8 q 0,0.74667 0,1.6 0.0533,0.8 0.10667,1.6 0.10666,0.8 0.21333,1.65334 l -4.10667,0.42666 z"
           inkscape:connector-curvature="0" />
        <path
           id="path5066"
           style="font-style:normal;font-variant:normal;font-weight:normal;font-stretch:normal;font-size:53.33333206px;line-height:58.24399948px;font-family:Actor;-inkscape-font-specification:Actor;word-spacing:0px;fill:#403a46;fill-opacity:1;stroke-width:1.77207303px"
           d="m 399.92592,128.01764 h 8.96 q 2.93334,0 5.33334,0.53334 2.45333,0.48 4.16,1.70666 1.70666,1.17334 2.61333,3.14667 0.90667,1.97333 0.90667,4.96 -0.0533,3.30667 -1.12,5.38667 -1.06667,2.02666 -2.61334,3.30666 -1.54666,1.22667 -3.57333,1.81334 v 0.10666 q 0.21333,0.21334 0.64,0.8 0.48,0.53334 0.8,0.96 l 10.29333,13.65334 h -5.28 l -10.56,-14.45334 h -6.08 v 14.45334 h -4.48 z m 17.44,11.09334 q 0,-2.24 -0.58666,-3.62667 -0.53334,-1.44 -1.65334,-2.18667 -1.06666,-0.74666 -2.66666,-1.01333 -1.6,-0.26667 -3.62667,-0.26667 h -4.42667 v 13.92 h 5.28 q 2.08,0 3.52,-0.53333 1.44,-0.53333 2.34667,-1.44 0.90667,-0.96 1.33333,-2.18667 0.42667,-1.22666 0.48,-2.66666 z"
           inkscape:connector-curvature="0" />
        <path
           id="path5068"
           style="font-style:normal;font-variant:normal;font-weight:normal;font-stretch:normal;font-size:53.33333206px;line-height:58.24399948px;font-family:Actor;-inkscape-font-specification:Actor;word-spacing:0px;fill:#403a46;fill-opacity:1;stroke-width:1.77207303px"
           d="m 449.22509,163.75098 q -1.22667,0.37333 -2.56,0.64 -1.28,0.26666 -2.88,0.48 -1.54667,0.21333 -3.25333,0.21333 -2.66667,0 -4.96,-0.74667 -2.29334,-0.74666 -4,-2.4 -1.70667,-1.65333 -2.72,-4.26666 -0.96,-2.66667 -0.96,-6.50667 0,-3.46667 0.96,-6.08 0.96,-2.66667 2.61333,-4.42667 1.70667,-1.81333 3.94667,-2.72 2.29333,-0.90666 4.96,-0.90666 2.61333,0 4.53333,1.01333 1.92,1.01333 3.14667,2.77333 1.28,1.70667 1.86666,4.05334 0.64,2.29333 0.64,4.85333 l -0.8,2.34667 h -17.22666 q 0,1.65333 0.42666,3.30666 0.42667,1.65334 1.44,2.98667 1.06667,1.33333 2.72,2.18667 1.70667,0.8 4.21334,0.8 1.6,0 2.93333,-0.16 1.33333,-0.21334 2.29333,-0.42667 1.01334,-0.26667 1.86667,-0.58667 z m -3.09333,-15.09334 q 0,-0.37333 -0.16,-1.65333 -0.16,-1.28 -0.74667,-2.66667 -0.58667,-1.38666 -1.81333,-2.45333 -1.22667,-1.12 -3.25334,-1.12 -2.24,0 -3.68,0.96 -1.44,0.90667 -2.29333,2.18667 -0.85333,1.28 -1.17333,2.61333 -0.32,1.33333 -0.32,2.13333 z"
           inkscape:connector-curvature="0" />
        <path
           id="path5070"
           style="font-style:normal;font-variant:normal;font-weight:normal;font-stretch:normal;font-size:53.33333206px;line-height:58.24399948px;font-family:Actor;-inkscape-font-specification:Actor;word-spacing:0px;fill:#403a46;fill-opacity:1;stroke-width:1.77207303px"
           d="m 460.63093,136.97764 v 26.93334 q 0,4.8 -1.76,7.89333 -1.76,3.14667 -5.49334,5.28 l -2.18666,-3.78667 q 1.6,-0.96 2.61333,-2.13333 1.01333,-1.12 1.54667,-2.45333 0.58666,-1.28 0.8,-2.66667 0.21333,-1.33333 0.21333,-2.72 v -25.70667 z m -5.12,-7.09333 q 0,-1.22667 0.8,-2.02667 0.85333,-0.85333 2.08,-0.85333 1.28,0 2.13333,0.85333 0.90667,0.8 0.90667,2.02667 0,1.22667 -0.90667,2.08 -0.85333,0.8 -2.13333,0.8 -1.22667,0 -2.08,-0.8 -0.8,-0.85333 -0.8,-2.08 z"
           inkscape:connector-curvature="0" />
        <path
           id="path5072"
           style="font-style:normal;font-variant:normal;font-weight:normal;font-stretch:normal;font-size:53.33333206px;line-height:58.24399948px;font-family:Actor;-inkscape-font-specification:Actor;word-spacing:0px;fill:#403a46;fill-opacity:1;stroke-width:1.77207303px"
           d="m 483.27675,152.07098 q -1.06667,0.0533 -2.02667,0.10666 -0.96,0.0533 -1.92,0.16 -0.90666,0.0533 -1.65333,0.16 -3.84,0.48 -5.44,1.70667 -1.6,1.17333 -1.6,3.41333 0,1.86667 1.12,2.82667 1.17333,0.90667 3.04,0.90667 2.56,0 4.53333,-0.85334 2.02667,-0.90666 3.94667,-2.34666 z m -0.0533,9.81333 q -2.50667,1.44 -4.69334,2.34667 -2.13333,0.85333 -4.64,0.85333 -3.57333,0 -5.70666,-1.70667 -2.08,-1.76 -2.08,-5.76 0,-2.08 1.06666,-3.62666 1.06667,-1.54667 2.77334,-2.56 1.76,-1.06667 3.94666,-1.65334 2.18667,-0.58666 4.48,-0.74666 0.96,-0.10667 2.50667,-0.16 1.54667,-0.10667 2.4,-0.16 0,-1.86667 -0.10667,-3.30667 -0.10666,-1.49333 -0.64,-2.50667 -0.53333,-1.06666 -1.6,-1.6 -1.01333,-0.53333 -2.93333,-0.53333 -1.54667,0 -2.98667,0.21333 -1.44,0.16 -2.56,0.37334 -1.33333,0.26666 -2.45333,0.58666 l -0.85333,-3.68 q 1.33333,-0.32 2.88,-0.58666 1.33333,-0.26667 3.09333,-0.42667 1.76,-0.21333 3.78667,-0.21333 2.72,0 4.37333,0.8 1.70667,0.8 2.61333,2.18666 0.96,1.33334 1.28,3.09334 0.37334,1.70666 0.37334,3.62666 v 12.8 q 0,0.74667 0,1.6 0.0533,0.8 0.10666,1.6 0.10667,0.8 0.21334,1.65334 l -4.10667,0.42666 z"
           inkscape:connector-curvature="0" />
      </g>
    </g>
  </g>
</svg>
