<?xml version="1.0" standalone="no"?><!-- Generator: Gravit.io --><svg xmlns="http://www.w3.org/2000/svg" xmlns:xlink="http://www.w3.org/1999/xlink" style="isolation:isolate" viewBox="251.85299431941962 110.69875697600109 516.387851012475 96.77094518160062" width="516.387851012475" height="96.77094518160062"><path d=" M 252.9533360578978 114.25876197505445 L 259.23333450390555 114.25876197505445 Q 264.4333464349642 114.25876197505445 266.91335728967437 116.09875821529366 Q 269.4333461696066 117.93876208492699 269.4333461696066 122.29876246388666 Q 269.4333461696066 124.6987562329997 268.5133327906987 126.29876225160055 Q 267.5933499293674 127.89876064080728 266.1933561071828 128.89876058773575 Q 264.8333403102203 129.8587596212598 263.2333342916194 130.29876203931445 Q 261.6333282730186 130.69876354396467 260.2733429936326 130.69876354396467 L 256.31335174871725 130.69876354396467 L 256.31335174871725 141.5387593065601 L 252.9533360578978 141.5387593065601 L 252.9533360578978 114.25876197505445 Z  M 256.31335174871725 127.69875607378512 L 259.99334422919566 127.69875607378512 Q 261.3533295085817 127.69875607378512 262.43334654110726 127.45875822275264 Q 263.5533415988549 127.17875945831572 264.3533293493671 126.57876101603746 Q 265.1533476174558 125.93876166035477 265.5933500355104 124.89876080002186 Q 266.03335245356504 123.81875902628452 266.03335245356504 122.21876063707779 Q 266.03335245356504 120.61876224787106 265.55334149271187 119.65876321434703 Q 265.11333907465723 118.65876326741856 264.19335621332584 118.13875902255504 Q 263.3133513772166 117.61876240708565 261.9533355802541 117.45875875346792 Q 260.59335030086805 117.25876181583988 258.7933320858509 117.25876181583988 L 256.31335174871725 117.25876181583988 L 256.31335174871725 127.69875607378512 Z " fill-rule="evenodd" fill="rgb(64,58,70)"/><path d=" M 284.7633319282864 132.2987619331714 Q 283.9633441777742 132.33876284657583 283.24334299528266 132.37876375998025 Q 282.5233418127911 132.4187646733847 281.80334063029954 132.49875887079943 Q 281.12334799060653 132.53875978420388 280.5633504617327 132.61876161101273 Q 277.68334573176645 132.9787622022585 276.4833335884217 133.8987603223781 Q 275.28335196265346 134.7787575290933 275.28335196265346 136.45875774510887 Q 275.28335196265346 137.85875919668757 276.1233482559642 138.57876037917913 Q 277.0033530920735 139.25876064826627 278.403346914258 139.25876064826627 Q 280.3233297225178 139.25876064826627 281.80334063029954 138.61876129258357 Q 283.3233295633033 137.93876102349645 284.7633319282864 136.8587592497591 L 284.7633319282864 132.2987619331714 Z  M 284.7233539030643 139.65876215291647 Q 282.8433491200266 140.7387639266538 281.20333455862715 141.41876419574095 Q 279.60332854002627 142.05876355142362 277.72335427456505 142.05876355142362 Q 275.0433312234386 142.05876355142362 273.44335572241425 140.77875721066414 Q 271.88332772903544 139.45875758589432 271.88332772903544 136.45875774510887 Q 271.88332772903544 134.8987602693066 272.6833459971241 133.7387642981545 Q 273.48333374763627 132.5787606976083 274.7633324590017 131.81875860171232 Q 276.0833397131656 131.018763221806 277.72335427456505 130.57876080375135 Q 279.36333831838795 130.1387583856967 281.083339447808 130.0187556454834 Q 281.80334063029954 129.93876144806865 282.96334423084573 129.89876053466423 Q 284.1233478313919 129.81875870785535 284.7633319282864 129.77875779445094 Q 284.7633319282864 128.37875634287224 284.6833453602658 127.29876219852902 Q 284.6033282746686 126.17875951138726 284.20333439941254 125.41875741549126 Q 283.80334052415645 124.61876203558495 283.0033527736443 124.21876053093474 Q 282.2433430483542 123.81875902628452 280.80334068337106 123.81875902628452 Q 279.64333708282487 123.81875902628452 278.5633505678758 123.97876267990226 Q 277.4833335353502 124.09875779072144 276.6433372420394 124.25876144433917 Q 275.64333729511094 124.45875838196721 274.8033410018002 124.6987562329997 L 274.1633569049058 121.93876187264088 Q 275.16335685183424 121.69875639221428 276.32332993480395 121.49875945458624 Q 277.32332988173243 121.29876251695819 278.6433371358964 121.1787597767449 Q 279.96334439006034 121.01875612312716 281.4833333230641 121.01875612312716 Q 283.5233417597196 121.01875612312716 284.7633319282864 121.61876219479954 Q 286.0433306396518 122.21876063707779 286.7233537969213 123.2587614974107 Q 287.44335497941285 124.25876144433917 287.68334520105117 125.57876106910899 Q 287.9633439654881 126.85875978047437 287.9633439654881 128.2987621454575 L 287.9633439654881 137.89876011009198 Q 287.9633439654881 138.45875763896584 287.9633439654881 139.09876462404264 Q 288.00335250828664 139.6987630663209 288.0433305335087 140.29876150859917 Q 288.12334761910586 140.89875995087743 288.2033341871265 141.5387593065601 L 285.1233477783204 141.85875898440145 L 284.7233539030643 139.65876215291647 Z " fill-rule="evenodd" fill="rgb(64,58,70)"/><path d=" M 293.6814833104552 124.65876294898939 Q 293.6814833104552 123.73875719947566 293.48147111403887 121.77875821902315 L 296.44146241202577 121.37875671437294 L 296.76146971926124 124.29876235774361 L 296.8014782620598 124.29876235774361 Q 297.52147944455135 123.37875660822988 298.20147208424436 122.69875633914275 Q 298.88146472393737 122.01875607005563 299.6014659064289 121.53876036799068 Q 300.36147563171903 121.01875612312716 301.04146827141204 121.01875612312716 Q 301.96148165031985 120.97876283911685 303.6014656941428 121.21876069014932 L 302.88146451165125 124.29876235774361 Q 301.5614572574873 124.05875687731701 301.04146827141204 124.09875779072144 Q 300.36147563171903 124.09875779072144 299.6014659064289 124.73875714640413 Q 298.8414866987153 125.37875650208683 298.281458652265 126.09875768457839 Q 297.5614574697734 126.97876252068768 296.8814648300804 128.0987575784353 L 296.8814648300804 141.5387593065601 L 293.6814833104552 141.5387593065601 L 293.6814833104552 124.65876294898939 Z " fill="rgb(64,58,70)"/><path d=" M 319.09209597554695 139.93876091735336 Q 317.93209237500076 140.77875721066414 316.3320863563999 141.41876419574095 Q 314.7720888805976 142.05876355142362 313.45208162643365 142.05876355142362 Q 311.81209758261076 142.05876355142362 310.33208667482904 141.4987583931557 Q 308.8920843098459 140.93876086428185 307.7720892520983 139.6987630663209 Q 306.6921027371492 138.45875763896584 306.05208812267824 136.49875865851334 Q 305.41210402578383 134.49875876465637 305.41210402578383 131.61876166408427 Q 305.41210402578383 128.89876058773575 306.2920783443166 126.89876069387881 Q 307.2120917232245 124.89876080002186 308.612085545409 123.61876208865648 Q 310.0520879103922 122.29876246388666 311.77208903981216 121.65876310820397 Q 313.53209871203074 121.01875612312716 315.1720827558537 121.01875612312716 Q 316.6921022064339 121.01875612312716 317.65209361056384 121.21876069014932 Q 318.6120850146937 121.37875671437294 319.33208619718533 121.5787612813951 Q 320.0520873796769 121.77875821902315 320.69210199414783 121.97876278604532 Q 321.33208609104224 122.13875881026893 322.2520994699501 122.13875881026893 L 322.2520994699501 150.2987609778839 L 319.09209597554695 150.6987624825341 L 319.09209597554695 139.93876091735336 Z  M 313.81209747646767 139.25876064826627 Q 314.692102312577 139.25876064826627 315.6120851739083 138.9387609704249 Q 316.5320985528162 138.61876129258357 317.3720948461269 138.1787588745289 Q 318.21209113943763 137.7387640858684 319.09209597554695 137.13875801419601 L 319.09209597554695 124.37875655515835 Q 318.73208012551294 124.25876144433917 318.21209113943763 124.09875779072144 Q 317.772088721383 124.01875596391257 317.0120789960929 123.93876176649783 Q 316.25209978837927 123.81875902628452 315.1720827558537 123.81875902628452 Q 313.4920901692322 123.81875902628452 312.29207802588746 124.41875746856279 Q 311.0920964001192 125.01875591084104 310.2920781320305 126.09875768457839 Q 309.53209892431687 127.13875854491128 309.17208307428285 128.53875999648997 Q 308.8120977418253 129.89876053466423 308.8120977418253 131.4587580104665 Q 308.8120977418253 132.8587594620452 309.09209650626224 134.25876091362392 Q 309.4121038134977 135.65876236520256 310.0520879103922 136.77875742295024 Q 310.6921025248631 137.89876011009198 311.61208538619445 138.57876037917913 Q 312.5320987651023 139.25876064826627 313.81209747646767 139.25876064826627 Z " fill-rule="evenodd" fill="rgb(64,58,70)"/><path d=" M 340.0564808492631 139.33876247507513 L 339.97646376366595 139.33876247507513 Q 339.61647843120846 139.61876123951203 338.9364552739389 140.09876457097113 Q 338.2564626342459 140.53875935963163 337.37645779813664 140.9787617776863 Q 336.49648347960385 141.41876419574095 335.4164664470783 141.7387638735823 Q 334.3764579573512 142.05876355142362 333.29647144240215 142.05876355142362 Q 331.81646053462043 142.05876355142362 330.77648256246994 141.6587620467734 Q 329.7364740727429 141.29876145552765 329.09645945827197 140.41876424881247 Q 328.4564753613775 139.53875941270317 328.1764765969406 138.09876467711416 Q 327.8964778325037 136.65876231213105 327.8964778325037 134.49875876465637 L 327.8964778325037 121.41875762777737 L 331.0964593521289 121.41875762777737 L 331.0964593521289 134.0187630625914 Q 331.0964593521289 135.21875994714793 331.1364678949275 136.17875898067197 Q 331.176476437726 137.13875801419601 331.41646665936435 137.81875828328313 Q 331.6564568810027 138.49875855237025 332.1764763846545 138.89876005702047 Q 332.7364739135283 139.25876064826627 333.7364738604568 139.25876064826627 Q 334.7764823501838 139.25876064826627 335.89647740793146 138.8187582302116 Q 337.0164724656791 138.3787634415511 337.93645532701044 137.81875828328313 Q 339.01647235953607 137.17875892760043 340.0564808492631 136.37876354769415 L 340.0564808492631 121.41875762777737 L 343.25646236888826 121.41875762777737 L 343.25646236888826 138.9387609704249 Q 343.29647091168687 140.37876333540802 343.4564745653046 141.5387593065601 L 340.2964710709014 141.85875898440145 L 340.0564808492631 139.33876247507513 Z " fill="rgb(64,58,70)"/><path d=" M 363.9121009210994 141.05876360449514 Q 362.9920875421916 141.33876236893207 361.9920875952631 141.5387593065601 Q 361.0320961911332 141.7387638735823 359.83208404778844 141.8987598978059 Q 358.6720804472422 142.05876355142362 357.39208173587684 142.05876355142362 Q 355.3920818420199 142.05876355142362 353.67208071259984 141.4987583931557 Q 351.95207958317985 140.93876086428185 350.67208087181444 139.6987630663209 Q 349.39208216044904 138.45875763896584 348.63210295273547 136.49875865851334 Q 347.9121017702439 134.49875876465637 347.9121017702439 131.61876166408427 Q 347.9121017702439 129.0187556985549 348.63210295273547 127.05875671810242 Q 349.3520736176505 125.05875682424548 350.59209430379383 123.73875719947566 Q 351.87209301515924 122.37875666130141 353.5520856017807 121.69875639221428 Q 355.2720867312007 121.01875612312716 357.2720866250577 121.01875612312716 Q 359.23207797611605 121.01875612312716 360.67208034109916 121.77875821902315 Q 362.1120827060823 122.53876031491914 363.03209608499014 123.85875993968897 Q 363.99208748912 125.13875865105435 364.4320899071747 126.89876069387881 Q 364.9121008680279 128.61876182329883 364.9121008680279 130.5387598903469 L 364.3120947963555 132.2987619331714 L 351.392082054306 132.2987619331714 Q 351.392082054306 133.53875973113233 351.7120893615415 134.7787575290933 Q 352.03209666877694 136.01876295644837 352.79207587649057 137.01876290337685 Q 353.5920941445792 138.0187628503053 354.8320843131461 138.658762205988 Q 356.11208302451143 139.25876064826627 357.99208780754924 139.25876064826627 Q 359.192099950894 139.25876064826627 360.19209989782246 139.13875790805295 Q 361.19209984475094 138.97876188382935 361.9121010272425 138.8187582302116 Q 362.6720802349561 138.61876129258357 363.31209484942707 138.3787634415511 L 363.9121009210994 141.05876360449514 Z  M 361.59209372000703 129.7387568810465 Q 361.59209372000703 129.45875811660957 361.47209860918787 128.49875908308553 Q 361.3520729807922 127.5387600495615 360.912101080314 126.4987591892286 Q 360.4720986622594 125.4587583288957 359.5520852833515 124.65876294898939 Q 358.6321024220202 123.81875902628452 357.1120829714399 123.81875902628452 Q 355.4320903848184 123.81875902628452 354.35207335229285 124.53876020877608 Q 353.27208683734375 125.21876047786321 352.63210274044934 126.17875951138726 Q 351.9920881259784 127.13875854491128 351.75209790434 128.13875849183978 Q 351.51207716512516 129.13875843876824 351.51207716512516 129.7387568810465 L 361.59209372000703 129.7387568810465 Z " fill-rule="evenodd" fill="rgb(64,58,70)"/><path d=" M 380.1464750595163 124.6987562329997 Q 378.4664824728949 124.1787596175303 377.1464752187309 124.01875596391257 Q 375.8664765073655 123.81875902628452 374.78645947483994 123.81875902628452 Q 373.3864656526554 123.81875902628452 372.4264742485255 124.49875929537166 Q 371.5064608696176 125.17875956445879 371.5064608696176 126.25876133819612 Q 371.5464694124162 127.21876037172015 372.34645716292835 127.89876064080728 Q 373.14647543101705 128.5787609098944 374.18645340316755 129.13875843876824 Q 375.2664704356932 129.65876268363175 376.54646914705853 130.29876203931445 Q 377.8664764012225 130.93876139499713 378.98647145897013 131.73876440429757 Q 380.1464750595163 132.53875978420388 380.86647624200793 133.65876247134565 Q 381.5864774244995 134.7787575290933 381.6264554497215 136.3387626342897 Q 381.5864774244995 138.0187628503053 380.86647624200793 139.13875790805295 Q 380.1864530847384 140.2187596817903 379.06645802699074 140.89875995087743 Q 377.98647151204165 141.5387593065601 376.7064728006763 141.7787571575926 Q 375.4264740893109 142.05876355142362 374.30647903156324 142.05876355142362 Q 372.8664766665801 142.05876355142362 371.30647919077785 141.8987598978059 Q 369.7864597401976 141.7387638735823 368.02648058555553 141.21875962871877 L 368.6264561396514 138.33876252814665 Q 370.4264743546685 138.8187582302116 371.9064547448737 139.05876371063823 Q 373.3864656526554 139.25876064826627 374.3464570567853 139.25876064826627 Q 375.06645823927687 139.25876064826627 375.74648139654636 139.09876462404264 Q 376.4664825790379 138.9387609704249 377.02648010791177 138.658762205988 Q 377.58647763678556 138.33876252814665 377.90645442644455 137.85875919668757 Q 378.26647027647857 137.3787634946226 378.26647027647857 136.77875742295024 Q 378.22646173368 135.65876236520256 377.50646055118847 134.8987602693066 Q 376.7864593686969 134.0987648894003 375.62645576815066 133.4987588177279 Q 374.506460710403 132.8587594620452 373.1864534562391 132.25876101976695 Q 371.9064547448737 131.61876166408427 370.746481661904 130.81875865478384 Q 369.6264560865799 129.97876236147312 368.86647687886625 128.85875967433134 Q 368.10646715357615 127.69875607378512 368.10646715357615 126.01875585776952 Q 368.10646715357615 124.818758973213 368.7064732252485 123.89876085309339 Q 369.34645732214295 122.93876181956935 370.30647924384937 122.3387633772911 Q 371.30647919077785 121.69875639221428 372.46648279132404 121.37875671437294 Q 373.6664644170923 121.01875612312716 374.78645947483994 121.01875612312716 Q 375.94646307538613 121.01875612312716 377.3864654403693 121.21876069014932 Q 378.8264678053524 121.37875671437294 380.70647258839017 121.85876004583201 L 380.1464750595163 124.6987562329997 Z " fill="rgb(64,58,70)"/><path d=" M 407.6858412737413 124.41875746856279 Q 406.2458389087582 124.01875596391257 405.44582064066947 123.93876176649783 Q 404.6458328901573 123.81875902628452 403.8058365968466 123.81875902628452 Q 402.1258440102251 123.81875902628452 400.92583186688034 124.41875746856279 Q 399.7258502411121 125.01875591084104 398.9258319730234 126.09875768457839 Q 398.1658222477333 127.13875854491128 397.80583691527573 128.53875999648997 Q 397.4458210652417 129.89876053466423 397.4458210652417 131.4587580104665 Q 397.4458210652417 132.8587594620452 397.7258503472551 134.25876091362392 Q 398.04582713691406 135.65876236520256 398.68584175138506 136.77875742295024 Q 399.32582584827946 137.89876011009198 400.24583922718733 138.57876037917913 Q 401.16582208851867 139.25876064826627 402.4458207998841 139.25876064826627 Q 403.32582563599334 139.25876064826627 404.2458390149012 138.9387609704249 Q 405.20583041903114 138.61876129258357 406.0058486871198 138.21875978793335 Q 406.80583643763197 137.7787573698787 407.6858412737413 137.13875801419601 L 407.6858412737413 124.41875746856279 Z  M 407.72584981653984 139.93876091735336 Q 406.80583643763197 140.57876027303607 405.9258316015227 141.01876269109073 Q 405.0858353082119 141.41876419574095 404.0458268184849 141.7387638735823 Q 403.04582687155647 142.05876355142362 402.08583546742653 142.05876355142362 Q 398.325825901351 142.05876355142362 396.1658223538763 139.41876430188398 Q 394.0458273492002 136.73876413893993 394.0458273492002 131.61876166408427 Q 394.0458273492002 128.5787609098944 395.0058492709066 126.53876010263303 Q 396.0058492178351 124.49875929537166 397.48582960804026 123.29876241081514 Q 398.9658405158219 122.05875698346006 400.6458331024434 121.53876036799068 Q 402.36583423186346 121.01875612312716 403.8058365968466 121.01875612312716 Q 404.52583777933813 121.01875612312716 405.3258255298503 121.13875886334046 Q 406.12584379793896 121.21876069014932 407.6858412737413 121.61876219479954 L 407.6858412737413 111.57876181211039 L 410.88582279336646 111.21876122086461 L 410.88582279336646 137.89876011009198 Q 410.88582279336646 138.45875763896584 410.88582279336646 139.09876462404264 Q 410.92583133616506 139.6987630663209 410.9658398789636 140.29876150859917 Q 411.0458264469842 140.89875995087743 411.1258435325813 141.5387593065601 L 408.04582660619883 141.85875898440145 L 407.72584981653984 139.93876091735336 Z " fill-rule="evenodd" fill="rgb(64,58,70)"/><path d=" M 431.5683168129023 141.05876360449514 Q 430.64833395157103 141.33876236893207 429.64833400464255 141.5387593065601 Q 428.6883426005126 141.7387638735823 427.4883304571679 141.8987598978059 Q 426.32832685662163 142.05876355142362 425.0483281452563 142.05876355142362 Q 423.0483282513993 142.05876355142362 421.32832712197927 141.4987583931557 Q 419.6083259925593 140.93876086428185 418.3283272811939 139.6987630663209 Q 417.04832856982847 138.45875763896584 416.2883493621149 136.49875865851334 Q 415.56834817962334 134.49875876465637 415.56834817962334 131.61876166408427 Q 415.56834817962334 129.0187556985549 416.2883493621149 127.05875671810242 Q 417.0083200270299 125.05875682424548 418.24834071317326 123.73875719947566 Q 419.5283394245387 122.37875666130141 421.2083320111601 121.69875639221428 Q 422.92833314058015 121.01875612312716 424.9283330344371 121.01875612312716 Q 426.8883243854955 121.01875612312716 428.3283267504786 121.77875821902315 Q 429.76832911546177 122.53876031491914 430.68831197679305 123.85875993968897 Q 431.6483338984995 125.13875865105435 432.08833631655415 126.89876069387881 Q 432.5683167598308 128.61876182329883 432.5683167598308 130.5387598903469 L 431.96834120573493 132.2987619331714 L 419.04832846368544 132.2987619331714 Q 419.04832846368544 133.53875973113233 419.3683357709209 134.7787575290933 Q 419.6883430781564 136.01876295644837 420.44832228587 137.01876290337685 Q 421.24834055395866 138.0187628503053 422.4883307225255 138.658762205988 Q 423.76832943389087 139.25876064826627 425.6483342169287 139.25876064826627 Q 426.8483463602734 139.25876064826627 427.8483463072019 139.13875790805295 Q 428.8483462541304 138.97876188382935 429.56831691904546 138.8187582302116 Q 430.3283266443355 138.61876129258357 430.96834125880645 138.3787634415511 L 431.5683168129023 141.05876360449514 Z  M 429.24834012938646 129.7387568810465 Q 429.24834012938646 129.45875811660957 429.1283450185673 128.49875908308553 Q 429.0083193901716 127.5387600495615 428.56834748969345 126.4987591892286 Q 428.1283450716388 125.4587583288957 427.20833169273095 124.65876294898939 Q 426.2883488313996 123.81875902628452 424.76832938081935 123.81875902628452 Q 423.08833679419786 123.81875902628452 422.0083197616723 124.53876020877608 Q 420.9283332467232 125.21876047786321 420.2883491498288 126.17875951138726 Q 419.64833453535783 127.13875854491128 419.40834431371945 128.13875849183978 Q 419.1683235745046 129.13875843876824 419.1683235745046 129.7387568810465 L 429.24834012938646 129.7387568810465 Z " fill-rule="evenodd" fill="rgb(64,58,70)"/><path d=" M 446.7033257752892 114.25876197505445 L 463.42335662621286 114.25876197505445 L 463.42335662621286 117.33876364264874 L 450.0633109485322 117.33876364264874 L 450.0633109485322 126.05875677117395 L 462.4633347045065 126.05875677117395 L 462.4633347045065 129.05875661195938 L 450.0633109485322 129.05875661195938 L 450.0633109485322 138.45875763896584 L 463.8233199838924 138.45875763896584 L 463.8233199838924 141.5387593065601 L 446.7033257752892 141.5387593065601 L 446.7033257752892 114.25876197505445 Z " fill="rgb(64,58,70)"/><path d=" M 479.52143926795674 124.6987562329997 Q 477.8414466813353 124.1787596175303 476.5214394271713 124.01875596391257 Q 475.24147123338247 123.81875902628452 474.1614542008569 123.81875902628452 Q 472.76149089624886 123.81875902628452 471.8014689745424 124.49875929537166 Q 470.881486113211 125.17875956445879 470.881486113211 126.25876133819612 Q 470.9214641384331 127.21876037172015 471.7214518889453 127.89876064080728 Q 472.52143963945747 128.5787609098944 473.56147864676103 129.13875843876824 Q 474.64143464413354 129.65876268363175 475.9214638730754 130.29876203931445 Q 477.24147112723944 130.93876139499713 478.361466184987 131.73876440429757 Q 479.52143926795674 132.53875978420388 480.24147096802477 133.65876247134565 Q 480.96144163293985 134.7787575290933 481.00148069331493 136.3387626342897 Q 480.96144163293985 138.0187628503053 480.24147096802477 139.13875790805295 Q 479.5614783283318 140.2187596817903 478.4414832705841 140.89875995087743 Q 477.36146623805854 141.5387593065601 476.08143700911666 141.7787571575926 Q 474.80146881532784 142.05876355142362 473.68147375758014 142.05876355142362 Q 472.241471392597 142.05876355142362 470.6814739167948 141.8987598978059 Q 469.1614544662145 141.7387638735823 467.40144479399595 141.21875962871877 L 468.00148138324477 138.33876252814665 Q 469.8014690806854 138.8187582302116 471.28144947089066 139.05876371063823 Q 472.76149089624886 139.25876064826627 473.72145178280226 139.25876064826627 Q 474.4414834828703 139.25876064826627 475.12147612256325 139.09876462404264 Q 475.84144678747833 138.9387609704249 476.4014443163522 138.658762205988 Q 476.96144184522603 138.33876252814665 477.28144915246145 137.85875919668757 Q 477.641434484919 137.3787634946226 477.641434484919 136.77875742295024 Q 477.601456459697 135.65876236520256 476.8814857947819 134.8987602693066 Q 476.16145409471386 134.0987648894003 475.00148101174415 133.4987588177279 Q 473.88148595399645 132.8587594620452 472.56147869983255 132.25876101976695 Q 471.28144947089066 131.61876166408427 470.12147638792095 130.81875865478384 Q 469.00148133017325 129.97876236147312 468.2414716048832 128.85875967433134 Q 467.48146187959304 127.69875607378512 467.48146187959304 126.01875585776952 Q 467.48146187959304 124.818758973213 468.0814374336889 123.89876085309339 Q 468.72145204815985 122.93876181956935 469.6814739698663 122.3387633772911 Q 470.6814739167948 121.69875639221428 471.8414469997644 121.37875671437294 Q 473.0414591431092 121.01875612312716 474.1614542008569 121.01875612312716 Q 475.32148831897956 121.01875612312716 476.7614906839627 121.21876069014932 Q 478.20143201379284 121.37875671437294 480.0814367968306 121.85876004583201 L 479.52143926795674 124.6987562329997 Z " fill="rgb(64,58,70)"/><path d=" M 490.040237537833 115.41875794620654 L 490.040237537833 121.41875762777737 L 495.84022502298757 121.41875762777737 L 495.84022502298757 124.01875596391257 L 490.040237537833 124.01875596391257 L 490.040237537833 134.69876333167855 Q 490.040237537833 136.01876295644837 490.0802155630551 136.89876016316353 Q 490.1602326486522 137.7787573698787 490.36018380991544 138.2987616147422 Q 490.56019600633175 138.8187582302116 490.9201813387893 139.05876371063823 Q 491.2802277063999 139.25876064826627 491.84022523527364 139.25876064826627 Q 493.3601836507009 139.2187597348618 495.36018354455786 138.1387579611245 L 496.3202054662642 140.57876027303607 Q 495.0001982121003 141.45875747975123 493.8402251291306 141.7387638735823 Q 492.720230071383 142.05876355142362 491.6002350136353 142.05876355142362 Q 488.9602205053074 142.05876355142362 487.88020347278183 140.57876027303607 Q 486.84022550063133 139.05876371063823 486.84022550063133 135.5787605383937 L 486.84022550063133 124.01875596391257 L 483.16023302015293 124.01875596391257 L 483.16023302015293 121.41875762777737 L 486.84022550063133 121.41875762777737 L 486.84022550063133 115.81875945085675 L 490.040237537833 115.41875794620654 Z " fill="rgb(64,58,70)"/><path d=" M 511.9314717275942 139.33876247507513 L 511.8514546419971 139.33876247507513 Q 511.4914693095396 139.61876123951203 510.8114766698465 140.09876457097113 Q 510.13148403015356 140.53875935963163 509.2514791940443 140.9787617776863 Q 508.371474357935 141.41876419574095 507.29145732540934 141.7387638735823 Q 506.25147935325884 142.05876355142362 505.17146232073327 142.05876355142362 Q 503.69148193052814 142.05876355142362 502.6514429232246 141.6587620467734 Q 501.61146495107397 141.29876145552765 500.971450336603 140.41876424881247 Q 500.3314357221321 139.53875941270317 500.05146747527175 138.09876467711416 Q 499.77143819325835 136.65876231213105 499.77143819325835 134.49875876465637 L 499.77143819325835 121.41875762777737 L 502.97145023046 121.41875762777737 L 502.97145023046 134.0187630625914 Q 502.97145023046 135.21875994714793 503.0114892908351 136.17875898067197 Q 503.0514673160572 137.13875801419601 503.2914575376955 137.81875828328313 Q 503.53144775933384 138.49875855237025 504.05146726298557 138.89876005702047 Q 504.6114647918594 139.25876064826627 505.6114647387879 139.25876064826627 Q 506.6514427109384 139.25876064826627 507.7714377686861 138.8187582302116 Q 508.8914328264337 138.3787634415511 509.81147672291814 137.81875828328313 Q 510.89143272029065 137.17875892760043 511.9314717275942 136.37876354769415 L 511.9314717275942 121.41875762777737 L 515.131483764796 121.41875762777737 L 515.131483764796 138.9387609704249 Q 515.1714617900179 140.37876333540802 515.3314349260593 141.5387593065601 L 512.1714619492325 141.85875898440145 L 511.9314717275942 139.33876247507513 Z " fill="rgb(64,58,70)"/><path d=" M 533.4670540807617 124.41875746856279 Q 532.0270517157785 124.01875596391257 531.2270639652663 123.93876176649783 Q 530.4270762147542 123.81875902628452 529.587049403867 123.81875902628452 Q 527.9070568172453 123.81875902628452 526.7071057090536 124.41875746856279 Q 525.5070935657088 125.01875591084104 524.7071058151967 126.09875768457839 Q 523.9470960899066 127.13875854491128 523.5870497222961 128.53875999648997 Q 523.2270643898385 129.89876053466423 523.2270643898385 131.4587580104665 Q 523.2270643898385 132.8587594620452 523.5070936718521 134.25876091362392 Q 523.8271009790874 135.65876236520256 524.4670545584054 136.77875742295024 Q 525.1070691728764 137.89876011009198 526.0270520342076 138.57876037917913 Q 526.9470959306921 139.25876064826627 528.2270641244809 139.25876064826627 Q 529.1070689605901 139.25876064826627 530.0270518219215 138.9387609704249 Q 530.9870737436279 138.61876129258357 531.7870614941401 138.21875978793335 Q 532.5870492446525 137.7787573698787 533.4670540807617 137.13875801419601 L 533.4670540807617 124.41875746856279 Z  M 533.5070931411367 139.93876091735336 Q 532.5870492446525 140.57876027303607 531.707105443696 141.01876269109073 Q 530.8670786328089 141.41876419574095 529.8271006606583 141.7387638735823 Q 528.8271007137298 142.05876355142362 527.8670787920234 142.05876355142362 Q 524.107069225948 142.05876355142362 521.9470961960496 139.41876430188398 Q 519.8271011913737 136.73876413893993 519.8271011913737 131.61876166408427 Q 519.8271011913737 128.5787609098944 520.787062077927 126.53876010263303 Q 521.7870620248555 124.49875929537166 523.2671034502137 123.29876241081514 Q 524.7470838404188 122.05875698346006 526.4270764270402 121.53876036799068 Q 528.1471080740369 121.01875612312716 529.587049403867 121.01875612312716 Q 530.3070811039349 121.01875612312716 531.1070688544471 121.13875886334046 Q 531.9070566049593 121.21876069014932 533.4670540807617 121.61876219479954 L 533.4670540807617 111.57876181211039 L 536.6670661179633 111.21876122086461 L 536.6670661179633 137.89876011009198 Q 536.6670661179633 138.45875763896584 536.6670661179633 139.09876462404264 Q 536.7071051783385 139.6987630663209 536.7470832035606 140.29876150859917 Q 536.8271002891577 140.89875995087743 536.9070563396017 141.5387593065601 L 533.8271004483722 141.85875898440145 L 533.5070931411367 139.93876091735336 Z " fill-rule="evenodd" fill="rgb(64,58,70)"/><path d=" M 542.4695560443913 121.37875671437294 L 545.6695680815931 121.01875612312716 L 545.6695680815931 141.5387593065601 L 542.4695560443913 141.5387593065601 L 542.4695560443913 121.37875671437294 Z  M 541.9495975758925 115.65876342663314 Q 541.9495975758925 114.73875767711941 542.5495731299884 114.13875923484115 Q 543.1895877444595 113.49875987915846 544.1095706057909 113.49875987915846 Q 545.0695925274972 113.49875987915846 545.709607141968 114.13875923484115 Q 546.3895997816612 114.73875767711941 546.3895997816612 115.65876342663314 Q 546.3895997816612 116.57876154675274 545.709607141968 117.21876090243543 Q 545.0695925274972 117.8187593447137 544.1095706057909 117.8187593447137 Q 543.1895877444595 117.8187593447137 542.5495731299884 117.21876090243543 Q 541.9495975758925 116.57876154675274 541.9495975758925 115.65876342663314 Z " fill-rule="evenodd" fill="rgb(64,58,70)"/><path d=" M 553.7339597434473 131.5787607506798 Q 553.7339597434473 135.45875779818041 555.4539303552908 137.3787634946226 Q 557.2139400275094 139.25876064826627 560.1739618430727 139.25876064826627 Q 563.093944598261 139.25876064826627 564.7339591596603 137.3787634946226 Q 566.3739737210599 135.49875871158486 566.3739737210599 131.73876440429757 Q 566.3739737210599 127.73875698718955 564.6139640488411 125.77875800673704 Q 562.8939324018447 123.81875902628452 559.8939325610593 123.81875902628452 Q 556.8939327202738 123.81875902628452 555.2939572192495 125.77875800673704 Q 553.7339597434473 127.69875607378512 553.7339597434473 131.5787607506798 Z  M 550.3339355098292 131.5387598372754 Q 550.3339355098292 128.49875908308553 551.2939574315355 126.4987591892286 Q 552.2539793532419 124.45875838196721 553.7339597434473 123.2587614974107 Q 555.2139401336524 122.01875607005563 556.8939327202738 121.53876036799068 Q 558.6139643672705 121.01875612312716 560.1339838178505 121.01875612312716 Q 561.5739861828338 121.01875612312716 563.2539787694552 121.49875945458624 Q 564.9739493812988 121.93876187264088 566.4139517462818 123.13875875719741 Q 567.853954111265 124.29876235774361 568.8139760329714 126.29876225160055 Q 569.7739369195249 128.25876123205308 569.7739369195249 131.2987619862429 Q 569.7739369195249 134.45875785125196 568.7739369725964 136.53875957191775 Q 567.8139760860429 138.61876129258357 566.3339346606847 139.8587590905445 Q 564.8539542704796 141.05876360449514 563.133983658636 141.5387593065601 Q 561.4139520116396 142.05876355142362 559.9339716214342 142.05876355142362 Q 558.4139521708541 142.05876355142362 556.7339595842327 141.57876021996455 Q 555.053966997611 141.0987645178996 553.613964632628 139.93876091735336 Q 552.2139402928669 138.73876403279687 551.2539794063136 136.6987632255355 Q 550.3339355098292 134.6587624182741 550.3339355098292 131.5387598372754 L 550.3339355098292 131.5387598372754 Z " fill-rule="evenodd" fill="rgb(64,58,70)"/><path d=" M 580.9633284155304 121.41875762777737 L 584.3633526491485 121.41875762777737 L 588.1233011800709 130.4987589769425 Q 588.6832987089447 131.81875860171232 589.1233011269994 133.13875822648214 Q 589.6033426054291 134.45875785125196 589.9633279378866 135.49875871158486 Q 590.4033303559413 136.73876413893993 590.7233376631768 137.89876011009198 L 590.7633156883987 137.89876011009198 Q 591.1233010208564 136.73876413893993 591.5633034389109 135.49875871158486 Q 591.9233498065216 134.45875785125196 592.4033302497983 133.13875822648214 Q 592.8833106930749 131.81875860171232 593.4033301967268 130.4987589769425 L 596.8833104807889 121.41875762777737 L 600.2432956540317 121.41875762777737 L 590.7233376631768 145.41876398345482 Q 590.1633401343029 146.89875963244825 589.2432962378186 147.97876140618558 Q 588.3633524368622 149.05876317992295 587.5233256259751 149.77875673302037 Q 586.5233256790466 150.61876065572523 585.443308646521 151.2187590980035 L 583.8833111707188 148.45875710825055 Q 584.7233379816059 148.05876323299447 585.443308646521 147.45875716132207 Q 586.0833232609918 146.9387605458527 586.7233378754629 146.13875753655225 Q 587.3633524899337 145.3787630700504 587.7633158476135 144.29876129631305 L 589.0033060161802 141.01876269109073 L 580.9633284155304 121.41875762777737 Z " fill="rgb(64,58,70)"/><path d=" M 613.1876919397091 114.25876197505445 L 619.9077233213479 114.25876197505445 Q 622.1076743764681 114.25876197505445 623.9077231090619 114.65876347970467 Q 625.7476888317246 115.01875644155632 627.0277180606665 115.93876219107005 Q 628.3076862544553 116.81875939778523 628.9876788941483 118.29876267617277 Q 629.6677325689943 119.77875832516621 629.6677325689943 122.01875607005563 Q 629.6276935086194 124.49875929537166 628.8277057581072 126.05875677117395 Q 628.027718007595 127.57876096296594 626.8676838894723 128.53875999648997 Q 625.7077108065025 129.45875811660957 624.1876913559222 129.89876053466423 L 624.1876913559222 129.97876236147312 Q 624.3477255271166 130.1387583856967 624.6677328343519 130.57876080375135 Q 625.0277181668096 130.97876230840157 625.267708388448 131.2987619862429 L 632.9876786818622 141.5387593065601 L 629.0277179545235 141.5387593065601 L 621.1076744295397 130.69876354396467 L 616.547677112952 130.69876354396467 L 616.547677112952 141.5387593065601 L 613.1876919397091 141.5387593065601 L 613.1876919397091 114.25876197505445 Z  M 626.2677083353763 122.57876122832357 Q 626.2677083353763 120.89876101230799 625.8277059173217 119.85876015197508 Q 625.4276815244891 118.77875837823774 624.5877157487548 118.2187608493639 Q 623.7877279982426 117.65876332049008 622.5877158548979 117.45875875346792 Q 621.3877037115533 117.25876181583988 619.867684260973 117.25876181583988 L 616.547677112952 117.25876181583988 L 616.547677112952 127.69875607378512 L 620.5076988754438 127.69875607378512 Q 622.0676963512462 127.69875607378512 623.1477133837718 127.29876219852902 Q 624.2277304162974 126.89876069387881 624.9077230559903 126.21876042479168 Q 625.5877156956833 125.49875924230012 625.9077230029188 124.57876112218052 Q 626.2277303101544 123.65876300206092 626.2677083353763 122.57876122832357 L 626.2677083353763 122.57876122832357 Z " fill-rule="evenodd" fill="rgb(64,58,70)"/><path d=" M 650.1620552117981 141.05876360449514 Q 649.2420723504667 141.33876236893207 648.2420724035383 141.5387593065601 Q 647.2820504818319 141.7387638735823 646.08209937364 141.8987598978059 Q 644.9220652555173 142.05876355142362 643.6420970617285 142.05876355142362 Q 641.6420971678715 142.05876355142362 639.9220655208751 141.4987583931557 Q 638.2020949090315 140.93876086428185 636.9220656800896 139.6987630663209 Q 635.6420974863006 138.45875763896584 634.8820877610106 136.49875865851334 Q 634.1620560609424 134.49875876465637 634.1620560609424 131.61876166408427 Q 634.1620560609424 129.0187556985549 634.8820877610106 127.05875671810242 Q 635.6020584259256 125.05875682424548 636.8420485944926 123.73875719947566 Q 638.1220778234344 122.37875666130141 639.8020704100559 121.69875639221428 Q 641.5221020570523 121.01875612312716 643.5221019509092 121.01875612312716 Q 645.4820627843912 121.01875612312716 646.9220651493742 121.77875821902315 Q 648.3620675143575 122.53876031491914 649.2820503756889 123.85875993968897 Q 650.2420722973952 125.13875865105435 650.6820747154497 126.89876069387881 Q 651.1620551587266 128.61876182329883 651.1620551587266 130.5387598903469 L 650.5620796046308 132.2987619331714 L 637.6420973801576 132.2987619331714 Q 637.6420973801576 133.53875973113233 637.96204365224 134.7787575290933 Q 638.2820509594756 136.01876295644837 639.0420606847656 137.01876290337685 Q 639.8420484352778 138.0187628503053 641.0820996389978 138.658762205988 Q 642.3620678327866 139.25876064826627 644.2420726158243 139.25876064826627 Q 645.4420847591691 139.25876064826627 646.4420847060976 139.13875790805295 Q 647.4420846530261 138.97876188382935 648.1620553179412 138.8187582302116 Q 648.9220650432312 138.61876129258357 649.5620796577023 138.3787634415511 L 650.1620552117981 141.05876360449514 Z  M 647.8420480107056 129.7387568810465 Q 647.8420480107056 129.45875811660957 647.7220528998864 128.49875908308553 Q 647.6020577890672 127.5387600495615 647.1620553710127 126.4987591892286 Q 646.7220529529579 125.4587583288957 645.8020700916265 124.65876294898939 Q 644.8820872302954 123.81875902628452 643.3620677797151 123.81875902628452 Q 641.6820751930936 123.81875902628452 640.602058160568 124.53876020877608 Q 639.5221021631953 125.21876047786321 638.8820875487245 126.17875951138726 Q 638.2420729342534 127.13875854491128 638.0020827126152 128.13875849183978 Q 637.7620924909768 129.13875843876824 637.7620924909768 129.7387568810465 L 647.8420480107056 129.7387568810465 Z " fill-rule="evenodd" fill="rgb(64,58,70)"/><path d=" M 657.2364566918175 124.01875596391257 L 653.5164251509641 124.01875596391257 L 653.5164251509641 121.41875762777737 L 657.1964786665953 121.41875762777737 Q 657.1964786665953 115.85876036426119 659.7164370289511 113.33876385493485 Q 662.2364564264599 110.81875971621439 666.5964415466312 110.81875971621439 Q 669.9564267198741 110.81875971621439 673.7564753463248 112.01875660077091 L 673.7564753463248 141.5387593065601 L 670.556463309123 141.5387593065601 L 670.556463309123 114.21876106165003 Q 668.7164365513074 113.61876261937176 666.6364806070064 113.61876261937176 Q 664.5964416527743 113.61876261937176 663.3564514842076 114.25876197505445 Q 662.1164613156407 114.89876133073714 661.4764467011698 115.97876310447448 Q 660.8364320866988 117.0587572488177 660.5964418650603 118.45875870039639 Q 660.396429668644 119.85876015197508 660.396429668644 121.41875762777737 L 665.4364684636616 121.41875762777737 L 665.4364684636616 124.01875596391257 L 660.4364687290192 124.01875596391257 L 660.4364687290192 141.5387593065601 L 657.2364566918175 141.5387593065601 L 657.2364566918175 124.01875596391257 Z " fill="rgb(64,58,70)"/><path d=" M 694.3808028650415 141.05876360449514 Q 693.4608200037101 141.33876236893207 692.4608200567816 141.5387593065601 Q 691.5007981350752 141.7387638735823 690.3008470268835 141.8987598978059 Q 689.1408129087606 142.05876355142362 687.8608447149718 142.05876355142362 Q 685.8608448211148 142.05876355142362 684.1408131741184 141.4987583931557 Q 682.4208425622749 140.93876086428185 681.140813333333 139.6987630663209 Q 679.8608451395442 138.45875763896584 679.1008354142539 136.49875865851334 Q 678.380803714186 134.49875876465637 678.380803714186 131.61876166408427 Q 678.380803714186 129.0187556985549 679.1008354142539 127.05875671810242 Q 679.820806079169 125.05875682424548 681.0607962477359 123.73875719947566 Q 682.3408254766778 122.37875666130141 684.0208180632992 121.69875639221428 Q 685.7408497102956 121.01875612312716 687.7408496041526 121.01875612312716 Q 689.7008104376346 121.01875612312716 691.1408128026176 121.77875821902315 Q 692.5808151676008 122.53876031491914 693.5007980289322 123.85875993968897 Q 694.4608199506386 125.13875865105435 694.9008223686933 126.89876069387881 Q 695.3808028119699 128.61876182329883 695.3808028119699 130.5387598903469 L 694.7808272578741 132.2987619331714 L 681.8608450334009 132.2987619331714 Q 681.8608450334009 133.53875973113233 682.1807913054834 134.7787575290933 Q 682.5007986127189 136.01876295644837 683.2608083380092 137.01876290337685 Q 684.0607960885213 138.0187628503053 685.3008472922411 138.658762205988 Q 686.5808154860299 139.25876064826627 688.4608202690677 139.25876064826627 Q 689.6608324124124 139.25876064826627 690.6608323593409 139.13875790805295 Q 691.6608323062694 138.97876188382935 692.3808029711845 138.8187582302116 Q 693.1408126964745 138.61876129258357 693.7808273109456 138.3787634415511 L 694.3808028650415 141.05876360449514 Z  M 692.060795663949 129.7387568810465 Q 692.060795663949 129.45875811660957 691.9408005531297 128.49875908308553 Q 691.8208054423108 127.5387600495615 691.380803024256 126.4987591892286 Q 690.9408006062013 125.4587583288957 690.0208177448701 124.65876294898939 Q 689.1008348835387 123.81875902628452 687.5808154329584 123.81875902628452 Q 685.900822846337 123.81875902628452 684.8208058138114 124.53876020877608 Q 683.7408498164389 125.21876047786321 683.1008352019678 126.17875951138726 Q 682.460820587497 127.13875854491128 682.2208303658585 128.13875849183978 Q 681.9808401442201 129.13875843876824 681.9808401442201 129.7387568810465 L 692.060795663949 129.7387568810465 Z " fill-rule="evenodd" fill="rgb(64,58,70)"/><path d=" M 704.7808267271587 130.97876230840157 L 697.3408246806048 121.41875762777737 L 701.1008342466803 121.41875762777737 L 706.980838817432 128.85875967433134 L 712.5408360809481 121.41875762777737 L 716.1408114758294 121.41875762777737 L 709.14081184733 130.85875956818825 L 716.8208041155224 141.5387593065601 L 713.0607945494469 141.5387593065601 L 706.940799757057 133.01876311566295 L 700.7408489142229 141.5387593065601 L 697.1408124841885 141.5387593065601 L 704.7808267271587 130.97876230840157 Z " fill="rgb(64,58,70)"/><path d=" M 720.047671620049 121.37875671437294 L 723.2476836572507 121.01875612312716 L 723.2476836572507 141.5387593065601 L 720.047671620049 141.5387593065601 L 720.047671620049 121.37875671437294 Z  M 719.5277131515502 115.65876342663314 Q 719.5277131515502 114.73875767711941 720.127688705646 114.13875923484115 Q 720.7677033201169 113.49875987915846 721.6876861814483 113.49875987915846 Q 722.6477081031549 113.49875987915846 723.2877227176257 114.13875923484115 Q 723.9677153573186 114.73875767711941 723.9677153573186 115.65876342663314 Q 723.9677153573186 116.57876154675274 723.2877227176257 117.21876090243543 Q 722.6477081031549 117.8187593447137 721.6876861814483 117.8187593447137 Q 720.7677033201169 117.8187593447137 720.127688705646 117.21876090243543 Q 719.5277131515502 116.57876154675274 719.5277131515502 115.65876342663314 Z " fill-rule="evenodd" fill="rgb(64,58,70)"/><path d=" M 731.3120753191047 131.5787607506798 Q 731.3120753191047 135.45875779818041 733.0320459309482 137.3787634946226 Q 734.7920556031668 139.25876064826627 737.7520774187303 139.25876064826627 Q 740.6720601739185 139.25876064826627 742.312074735318 137.3787634946226 Q 743.9520892967173 135.49875871158486 743.9520892967173 131.73876440429757 Q 743.9520892967173 127.73875698718955 742.1920796244988 125.77875800673704 Q 740.4720479775021 123.81875902628452 737.4720481367169 123.81875902628452 Q 734.4720482959315 123.81875902628452 732.8720727949071 125.77875800673704 Q 731.3120753191047 127.69875607378512 731.3120753191047 131.5787607506798 Z  M 727.9120510854868 131.5387598372754 Q 727.9120510854868 128.49875908308553 728.8720730071932 126.4987591892286 Q 729.8320949288996 124.45875838196721 731.3120753191047 123.2587614974107 Q 732.79205570931 122.01875607005563 734.4720482959315 121.53876036799068 Q 736.1920799429279 121.01875612312716 737.7120383583551 121.01875612312716 Q 739.1520407233384 121.01875612312716 740.8320943451129 121.49875945458624 Q 742.5520649569562 121.93876187264088 743.9920673219394 123.13875875719741 Q 745.4320696869227 124.29876235774361 746.392091608629 126.29876225160055 Q 747.3520524951823 128.25876123205308 747.3520524951823 131.2987619862429 Q 747.3520524951823 134.45875785125196 746.3520525482538 136.53875957191775 Q 745.3920916617005 138.61876129258357 743.9120502363423 139.8587590905445 Q 742.4320698461372 141.05876360449514 740.7120381991406 141.5387593065601 Q 738.992067587297 142.05876355142362 737.5120871970919 142.05876355142362 Q 735.9920677465116 142.05876355142362 734.3120751598901 141.57876021996455 Q 732.6320825732687 141.0987645178996 731.1920802082857 139.93876091735336 Q 729.7920558685246 138.73876403279687 728.8320949819711 136.6987632255355 Q 727.9120510854868 134.6587624182741 727.9120510854868 131.5387598372754 L 727.9120510854868 131.5387598372754 Z  M 740.2720968162389 110.69875697600109 L 742.3520527605401 113.13875928791268 L 734.7520775779449 117.49875966687235 L 733.3920922985587 115.69875671064345 L 740.2720968162389 110.69875697600109 Z " fill-rule="evenodd" fill="rgb(64,58,70)"/><path d=" M 752.0408339846229 125.41875741549126 Q 752.080812009845 124.57876112218052 751.8408217882065 121.77875821902315 L 754.8008436037699 121.37875671437294 L 755.2408460218246 123.93876176649783 Q 756.4407971300163 123.13875875719741 757.600831248139 122.53876031491914 Q 758.8008433914838 121.93876187264088 760.0408335600505 121.49875945458624 Q 761.2808237286174 121.01875612312716 762.440796811587 121.01875612312716 Q 764.0808113729865 121.01875612312716 765.1608284055121 121.41875762777737 Q 766.2808234632598 121.77875821902315 766.9608161029528 122.65876305513244 Q 767.6408087426457 123.53876026184761 767.9208380246591 124.97876262683073 Q 768.2408453318947 126.41875736241973 768.2408453318947 128.5787609098944 L 768.2408453318947 141.5387593065601 L 765.0408332946929 141.5387593065601 L 765.0408332946929 128.9387615011402 Q 765.0408332946929 127.73875698718955 765.0007942343179 126.81875886706995 Q 764.9608162090958 125.8587598335459 764.6408089018603 125.21876047786321 Q 764.360840655 124.53876020877608 763.7208260405289 124.1787596175303 Q 763.1207894512802 123.81875902628452 762.0007943935325 123.81875902628452 Q 760.9608164213819 123.81875902628452 759.8008433384123 124.29876235774361 Q 758.6408092202896 124.73875714640413 757.5208141625419 125.33876321807652 Q 756.4008191047942 125.93876166035477 755.2408460218246 126.73875704026108 L 755.2408460218246 141.5387593065601 L 752.0408339846229 141.5387593065601 L 752.0408339846229 125.41875741549126 Z " fill="rgb(64,58,70)"/><path d=" M 251.85299431941962 158.40303911223054 L 256.33300506798673 158.40303911223054 L 256.33300506798673 190.50971160261622 L 272.8663293858504 190.50971160261622 L 272.8663293858504 194.7763739738342 L 251.85299431941962 194.7763739738342 L 251.85299431941962 158.40303911223054 Z " fill="rgb(64,58,70)"/><path d=" M 292.4954787347264 182.45638256224532 Q 291.4288284007102 182.50968150961194 290.46883699658025 182.56304149213162 Q 289.5088455924503 182.6163404394983 288.5488236707439 182.72304514574938 Q 287.64217699034543 182.776344093116 286.89550344598814 182.88303354057882 Q 283.05550731189203 183.36304450143206 281.45550129329115 184.58971374785426 Q 279.85549527469027 185.7630382705451 279.85549527469027 188.0030436448286 Q 279.85549527469027 189.86971224693355 280.9754903324379 190.82970365106348 Q 282.14883011391703 191.73638084903848 284.0154987160219 191.73638084903848 Q 286.57549613875267 191.73638084903848 288.5488236707439 190.88303311600663 Q 290.57549592646654 189.9763711768199 292.4954787347264 188.536384070625 L 292.4954787347264 182.45638256224532 Z  M 292.442195046148 192.2697060160466 Q 289.93551182957214 193.7097083810297 287.74886643780826 194.6163855790047 Q 285.61553525219927 195.46970279446003 283.10885203562344 195.46970279446003 Q 279.53551848503133 195.46970279446003 277.40218729942234 193.76303784597286 Q 275.3222008375448 192.00304343254254 275.3222008375448 188.0030436448286 Q 275.3222008375448 185.92304192416282 276.38885117156104 184.3763806292934 Q 277.45553202315375 182.82970407563568 279.1621969716409 181.8163832065626 Q 280.9222066438595 180.74970235496988 283.10885203562344 180.16303246423035 Q 285.2955279449638 179.5763778322791 287.5888627841905 179.41637417866133 Q 288.54885418832043 179.30971524877498 290.09551548318984 179.25638578383183 Q 291.6421767780593 179.14971159515727 292.4955092523029 179.09638213021412 Q 292.4955092523029 177.2297135281092 292.3888503224166 175.78971116312607 Q 292.28219139253025 174.2963793331998 291.74886622552214 173.28304320533846 Q 291.21551054093754 172.21637761253396 290.14886020692126 171.68303718673764 Q 289.13552407905996 171.14971201972952 287.2155107532236 171.14971201972952 Q 285.6688494583542 171.14971201972952 284.2288470933711 171.36304513829037 Q 282.78887524596445 171.52303353311987 281.66884967064027 171.73638191046905 Q 280.33553675312 172.0030444939731 279.21551117779586 172.3230365424203 L 278.3621787035523 168.6430440619419 Q 279.69552213864904 168.32303675470644 281.2421834335185 168.05637417120238 Q 282.5755268686153 167.78971158769832 284.3355365408339 167.62970793408056 Q 286.09551569547597 167.41637481551965 288.1221879511986 167.41637481551965 Q 290.84218902754714 167.41637481551965 292.4955092523029 168.21637782482009 Q 294.2022047183666 169.01638083412053 295.10885139876507 170.40303847537223 Q 296.0688733204715 171.73638191046905 296.3888501101305 173.49637632389937 Q 296.76220214109736 175.20304127238654 296.76220214109736 177.12303933943463 L 296.76220214109736 189.9230417118767 Q 296.76220214109736 190.66971525623399 296.76220214109736 191.5230324716893 Q 296.81548582967577 192.32303548098974 296.86886107098366 193.12303849029018 Q 296.97552000087 193.92304149959062 297.0821789307563 194.7763739738342 L 292.97552021315613 195.20304021095598 L 292.442195046148 192.2697060160466 Z " fill-rule="evenodd" fill="rgb(64,58,70)"/><path d=" M 317.3738343479877 158.40303911223054 L 326.3338253275454 158.40303911223054 Q 329.26717478124306 158.40303911223054 331.6671685503561 158.93637953802693 Q 334.12047652562404 159.4163752400919 335.82717199168775 160.6430444865141 Q 337.5338064225984 161.81638426799316 338.4404836205734 163.7897117999844 Q 339.3471608185484 165.76303933197562 339.3471608185484 168.7497029918282 Q 339.2938466123935 172.05637395891625 338.22716576080074 174.13637567958204 Q 337.16048490920804 176.16303267651648 335.61382361433857 177.44303138788183 Q 334.06716231946916 178.6697158930923 332.04049006374646 179.25638578383183 L 332.04049006374646 179.36304471371818 Q 332.2538079235191 179.5763778322791 332.6805046782174 180.16303246423035 Q 333.1604851214941 180.69637289002674 333.48049242872963 181.1230391271485 L 343.7738268433841 194.7763739738342 L 338.4938283443048 194.7763739738342 L 327.9338313461463 180.32303611784806 L 321.8538145789783 180.32303611784806 L 321.8538145789783 194.7763739738342 L 317.3738343479877 194.7763739738342 L 317.3738343479877 158.40303911223054 Z  M 334.8138053462499 169.4963765361855 Q 334.8138053462499 167.2563864206902 334.22716597308687 165.86971352065024 Q 333.6938102885023 164.42971115566712 332.5738152307546 163.68303761130983 Q 331.50716489673835 162.9363793257408 329.9071588781375 162.66971674223674 Q 328.30715285953664 162.40303889994448 326.280480603814 162.40303889994448 L 321.8538145789783 162.40303889994448 L 321.8538145789783 176.3230363301342 L 327.1338130780576 176.3230363301342 Q 329.21383005751164 176.3230363301342 330.65383242249476 175.78971116312607 Q 332.0938347874779 175.25638599611796 333.0004814678764 174.34970879814296 Q 333.9071586658514 173.3897021352248 334.3338249029732 172.16303288880255 Q 334.760491140095 170.9363789011686 334.8138053462499 169.4963765361855 Z " fill-rule="evenodd" fill="rgb(64,58,70)"/><path d=" M 366.67299554996515 194.13637461815148 Q 365.4463110447547 194.50971139033015 364.1129981272344 194.7763739738342 Q 362.832999415869 195.04303655733827 361.23299339726816 195.2563849346874 Q 359.6863321023987 195.46970279446003 357.9796671539115 195.46970279446003 Q 355.31298028371793 195.46970279446003 353.01964544449123 194.723044508891 Q 350.72631060526453 193.97637096453377 349.01964565677736 192.32303548098974 Q 347.3129807082901 190.66971525623399 346.29964458042883 188.0563731097718 Q 345.3396531762989 185.38970149836643 345.3396531762989 181.54970536427032 Q 345.3396531762989 178.08304600235277 346.29964458042883 175.4697038558906 Q 347.25966650213525 172.80303224448528 348.912986726891 171.0430378310549 Q 350.6196516753782 169.22971395268144 352.85967230845 168.32303675470644 Q 355.15297663010017 167.41637481551965 357.8196635002938 167.41637481551965 Q 360.43297512917945 167.41637481551965 362.3529884550158 168.429710943381 Q 364.2730017808521 169.44303181245408 365.4996557684861 171.20304148467267 Q 366.7796544798515 172.90970643315984 367.36632437059103 175.25638599611796 Q 368.00630846748544 177.5497055765564 368.00630846748544 180.1097029992872 L 367.20632071697327 182.45638256224532 L 349.97966757848377 182.45638256224532 Q 349.97966757848377 184.10970278700108 350.40633381560554 185.7630382705451 Q 350.83300005272736 187.41637375408908 351.8463056630122 188.74970193039763 Q 352.9129865146049 190.08304536549446 354.56630673936064 190.93637783973804 Q 356.27300220542435 191.73638084903848 358.7796549044237 191.73638084903848 Q 360.3796609230246 191.73638084903848 361.71297384054486 191.57637719542072 Q 363.0463172756416 191.3630440768598 364.00630867977156 191.14971095829895 Q 365.01964480763286 190.88303311600663 365.8729772818765 190.56304106755942 L 366.67299554996515 194.13637461815148 Z  M 363.5796729602263 179.0430374064827 Q 363.5796729602263 178.6697158930923 363.4196693066085 177.38970192293868 Q 363.2596656529908 176.10970321157328 362.6729957622513 174.72304557032157 Q 362.08632587151175 173.3363726702816 360.85967188387775 172.26970707747716 Q 359.6329873786673 171.14971201972952 357.60631512294464 171.14971201972952 Q 355.36632500744935 171.14971201972952 353.92632264246623 172.1097034238594 Q 352.4863202774831 173.0163806218344 351.63298780323953 174.2963793331998 Q 350.77965532899594 175.57637804456516 350.4596480217605 176.90970622087372 Q 350.1396712321015 178.24303439718227 350.1396712321015 179.0430374064827 L 363.5796729602263 179.0430374064827 Z " fill-rule="evenodd" fill="rgb(64,58,70)"/><path d=" M 378.07881769854697 167.3630453505765 L 378.07881769854697 194.29637827176924 Q 378.07881769854697 199.09638106878356 376.31883854390486 202.18970365852243 Q 374.5588288716863 205.33637097199272 370.82549166747646 207.46970215760172 L 368.63881575813605 203.6830354884487 Q 370.2388217767369 202.72304408431881 371.2521579045982 201.54970430283976 Q 372.26549403245957 200.4297092450921 372.7988191994677 199.09638106878356 Q 373.3854890902072 197.81638235741815 373.5988374675564 196.42970945737818 Q 373.81215532732904 195.09638128106968 373.81215532732904 193.7097083810297 L 373.81215532732904 168.00304470625917 L 378.07881769854697 167.3630453505765 Z  M 372.95882285308545 160.26970771433548 Q 372.95882285308545 159.04303846791328 373.7588411211741 158.24304308800697 Q 374.6121430778412 157.38971061376336 375.8388275830517 157.38971061376336 Q 377.11882629441703 157.38971061376336 377.9721587686606 158.24304308800697 Q 378.8788359666356 159.04303846791328 378.8788359666356 160.26970771433548 Q 378.8788359666356 161.4963769607577 377.9721587686606 162.34970943500127 Q 377.11882629441703 163.1497124443017 375.8388275830517 163.1497124443017 Q 374.6121430778412 163.1497124443017 373.7588411211741 162.34970943500127 Q 372.95882285308545 161.4963769607577 372.95882285308545 160.26970771433548 Z " fill-rule="evenodd" fill="rgb(64,58,70)"/><path d=" M 400.72466000255685 182.45638256224532 Q 399.6579791509641 182.50968150961194 398.69798774683414 182.56304149213162 Q 397.73796582512773 182.6163404394983 396.77797442099785 182.72304514574938 Q 395.8713277405993 182.776344093116 395.1246541962421 182.88303354057882 Q 391.2846580621459 183.36304450143206 389.68465204354504 184.58971374785426 Q 388.0846460249442 185.7630382705451 388.0846460249442 188.0030436448286 Q 388.0846460249442 189.86971224693355 389.20464108269186 190.82970365106348 Q 390.3779808641709 191.73638084903848 392.24464946627586 191.73638084903848 Q 394.8046468890066 191.73638084903848 396.77797442099785 190.88303311600663 Q 398.8046466767205 189.9763711768199 400.72466000255685 188.536384070625 L 400.72466000255685 182.45638256224532 Z  M 400.6713457964019 192.2697060160466 Q 398.16466257982603 193.7097083810297 395.97801718806215 194.6163855790047 Q 393.8446860024532 195.46970279446003 391.33800278587734 195.46970279446003 Q 387.7646692352852 195.46970279446003 385.6313380496763 193.76303784597286 Q 383.5513515877987 192.00304343254254 383.5513515877987 188.0030436448286 Q 383.5513515877987 185.92304192416282 384.61800192181494 184.3763806292934 Q 385.6846827734077 182.82970407563568 387.3913477218949 181.8163832065626 Q 389.15135739411346 180.74970235496988 391.33800278587734 180.16303246423035 Q 393.52467869521774 179.5763778322791 395.81801353444445 179.41637417866133 Q 396.7780049385743 179.30971524877498 398.3246662334438 179.25638578383183 Q 399.87135804588974 179.14971159515727 400.7246905201333 179.09638213021412 Q 400.7246905201333 177.2297135281092 400.6180010726705 175.78971116312607 Q 400.5113421427842 174.2963793331998 399.9780169757761 173.28304320533846 Q 399.44466129119144 172.21637761253396 398.3780109571752 171.68303718673764 Q 397.36467482931386 171.14971201972952 395.44466150347756 171.14971201972952 Q 393.8980002086081 171.14971201972952 392.457997843625 171.36304513829037 Q 391.01799547864186 171.52303353311987 389.8980004208942 171.73638191046905 Q 388.56468750337393 172.0030444939731 387.44466192804975 172.3230365424203 L 386.5913599713827 168.6430440619419 Q 387.924672888903 168.32303675470644 389.4713341837724 168.05637417120238 Q 390.8046776188692 167.78971158769832 392.5646872910878 167.62970793408056 Q 394.3246664457299 167.41637481551965 396.35133870145256 167.41637481551965 Q 399.07133977780103 167.41637481551965 400.7246905201333 168.21637782482009 Q 402.4313554686205 169.01638083412053 403.338002149019 170.40303847537223 Q 404.2979935531489 171.73638191046905 404.61800086038437 173.49637632389937 Q 404.99135289135126 175.20304127238654 404.99135289135126 177.12303933943463 L 404.99135289135126 189.9230417118767 Q 404.99135289135126 190.66971525623399 404.99135289135126 191.5230324716893 Q 405.04463657992966 192.32303548098974 405.0980118212376 193.12303849029018 Q 405.2046707511239 193.92304149959062 405.3113601985867 194.7763739738342 L 401.20467096341 195.20304021095598 L 400.6713457964019 192.2697060160466 Z " fill-rule="evenodd" fill="rgb(64,58,70)"/></svg>